<svg version="1.1" xmlns="http://www.w3.org/2000/svg" viewBox="0 0 618.7692764643651 874.2786966423346" width="618.7692764643651" height="874.2786966423346" filter="invert(93%) hue-rotate(180deg)">
  <!-- svg-source:excalidraw -->
  
  <defs>
    <style class="style-fonts">
      @font-face {
        font-family: "Virgil";
        src: url("https://excalidraw.com/Virgil.woff2");
      }
      @font-face {
        font-family: "Cascadia";
        src: url("https://excalidraw.com/Cascadia.woff2");
      }
    </style>
  </defs>
  <rect x="0" y="0" width="618.7692764643651" height="874.2786966423346" fill="#ffffff"></rect><g transform="translate(115.01880169583455 10) rotate(0 232.49999999999994 35)"><text x="0" y="18.333333333333332" font-family="Helvetica, Segoe UI Emoji" font-size="20px" fill="#000000" text-anchor="start" style="white-space: pre;" direction="ltr">1. Get the current path</text><text x="0" y="41.666666666666664" font-family="Helvetica, Segoe UI Emoji" font-size="20px" fill="#000000" text-anchor="start" style="white-space: pre;" direction="ltr">2. redirect to login</text><text x="0" y="65" font-family="Helvetica, Segoe UI Emoji" font-size="20px" fill="#000000" text-anchor="start" style="white-space: pre;" direction="ltr">3. post successful login redirect back to original path</text></g><g stroke-linecap="round" transform="translate(228.14365794456467 155.9027188866121) rotate(0 178.33380486545542 108.80162348899341)"><path d="M185.12 0.04 C202.73 -1.34, 221.89 2.35, 239.06 6.19 C256.23 10.03, 273.66 16.03, 288.14 23.08 C302.62 30.13, 315.82 39.26, 325.94 48.49 C336.06 57.71, 343.83 67.63, 348.85 78.45 C353.86 89.27, 356.46 102.25, 356.02 113.39 C355.58 124.53, 352.31 134.87, 346.21 145.31 C340.11 155.76, 330.89 167.19, 319.43 176.06 C307.96 184.92, 292.82 192.38, 277.42 198.49 C262.02 204.6, 244.53 209.6, 227.02 212.73 C209.5 215.86, 190.52 217.55, 172.32 217.26 C154.12 216.96, 135.14 214.82, 117.84 210.97 C100.54 207.11, 83.02 200.91, 68.52 194.1 C54.02 187.3, 41.11 179.4, 30.84 170.12 C20.58 160.85, 12.11 149.11, 6.94 138.43 C1.77 127.75, -0.99 117.07, -0.19 106.03 C0.6 94.99, 5.39 82.87, 11.7 72.19 C18 61.51, 26.57 50.85, 37.64 41.95 C48.71 33.05, 62.9 25.08, 78.11 18.78 C93.33 12.47, 109.52 7.16, 128.94 4.14 C148.37 1.11, 182.17 0.89, 194.69 0.62 C207.21 0.34, 204.32 0.82, 204.04 2.5 M144.75 3.35 C161.11 -0.46, 179.91 0.44, 197.98 1.76 C216.05 3.09, 236.04 6.78, 253.17 11.3 C270.29 15.81, 287.41 21.44, 300.71 28.87 C314 36.29, 324.14 46.13, 332.93 55.84 C341.71 65.55, 349.79 75.97, 353.41 87.13 C357.03 98.3, 357.04 111.62, 354.66 122.84 C352.29 134.05, 346.81 144.48, 339.17 154.42 C331.52 164.35, 321.23 174.38, 308.76 182.44 C296.3 190.51, 280.33 197.31, 264.37 202.78 C248.42 208.25, 230.71 213.1, 213.04 215.27 C195.38 217.43, 176.48 217.03, 158.39 215.77 C140.29 214.52, 121.18 212.36, 104.46 207.74 C87.74 203.13, 71.54 195.8, 58.07 188.08 C44.59 180.36, 32.87 171.29, 23.61 161.44 C14.35 151.59, 6.41 139.81, 2.51 128.97 C-1.39 118.13, -2.18 107.45, 0.23 96.4 C2.64 85.34, 8.84 73.07, 16.96 62.66 C25.07 52.24, 36.51 41.83, 48.93 33.93 C61.34 26.03, 75.68 20.3, 91.45 15.24 C107.22 10.18, 134.75 5.44, 143.54 3.55 C152.32 1.67, 143.68 2.13, 144.16 3.92" stroke="#000000" stroke-width="1" fill="none"></path></g><g stroke-linecap="round" transform="translate(414.04321634211135 228.67731108965495) rotate(0 68.81162425887692 45.39406766623085)"><path d="M72.76 -0.65 C82.98 -0.97, 94.52 2.38, 103.56 5.94 C112.6 9.51, 121.46 14.71, 127 20.73 C132.54 26.75, 135.97 34.82, 136.77 42.07 C137.56 49.32, 136.02 57.68, 131.78 64.22 C127.53 70.77, 119.55 76.97, 111.3 81.35 C103.05 85.74, 92.69 89.16, 82.29 90.53 C71.89 91.9, 59.19 91.75, 48.9 89.55 C38.62 87.36, 28.25 82.47, 20.56 77.35 C12.87 72.23, 5.98 65.36, 2.77 58.83 C-0.44 52.3, -0.54 44.84, 1.28 38.18 C3.1 31.52, 7.42 24.5, 13.71 18.86 C20.01 13.22, 28.34 7.45, 39.06 4.34 C49.78 1.23, 70.73 0.68, 78.02 0.22 C85.32 -0.24, 83.16 0.9, 82.83 1.59 M100.57 5.46 C109.62 7.99, 118.82 13.9, 124.79 19.78 C130.76 25.65, 134.86 33.67, 136.4 40.73 C137.94 47.78, 137.63 55.52, 134.02 62.11 C130.41 68.69, 123.29 75.58, 114.73 80.22 C106.17 84.86, 93.06 88.65, 82.67 89.95 C72.27 91.26, 62.29 90.12, 52.37 88.05 C42.45 85.98, 31.43 82.02, 23.13 77.53 C14.83 73.04, 6.09 67.61, 2.59 61.08 C-0.92 54.56, 0.34 45.31, 2.09 38.38 C3.85 31.46, 7.31 25.29, 13.11 19.53 C18.9 13.77, 27.15 7.24, 36.87 3.83 C46.59 0.43, 60.78 -1.39, 71.42 -0.89 C82.07 -0.38, 96 5.47, 100.74 6.87 C105.48 8.28, 100.26 7.2, 99.87 7.53" stroke="#000000" stroke-width="1" fill="none"></path></g><g transform="translate(475.35484060098827 262.5713787558857) rotate(0 7.5 11.5)"><text x="7.5" y="18" font-family="Helvetica, Segoe UI Emoji" font-size="20px" fill="#000000" text-anchor="middle" style="white-space: pre;" direction="ltr">js</text></g><g transform="translate(319.6523503946114 190.8556860608944) rotate(0 43.5 11.5)"><text x="0" y="18" font-family="Helvetica, Segoe UI Emoji" font-size="20px" fill="#000000" text-anchor="start" style="white-space: pre;" direction="ltr">typescript</text></g><g transform="translate(56.654994520728565 475.6944021654406) rotate(0 144 11.5)"><text x="0" y="18" font-family="Helvetica, Segoe UI Emoji" font-size="20px" fill="#000000" text-anchor="start" style="white-space: pre;" direction="ltr">typescript                     javascript</text></g><g stroke-linecap="round"><g transform="translate(151.0458329817851 487.57657566289413) rotate(0 54.18448198849012 0.8166125283192969)"><path d="M-0.51 1 C17.62 1.02, 90.76 0.32, 108.88 0.34 M1.42 0.47 C19.4 0.59, 90.35 1, 107.97 1.3" stroke="#000000" stroke-width="1" fill="none"></path></g><g transform="translate(151.0458329817851 487.57657566289413) rotate(0 54.18448198849012 0.8166125283192969)"><path d="M81.34 11.39 C86.5 7.38, 96.44 6.26, 106.7 1.3 M79.15 11.48 C86.65 8.41, 92.64 7.25, 108.27 1.68" stroke="#000000" stroke-width="1" fill="none"></path></g><g transform="translate(151.0458329817851 487.57657566289413) rotate(0 54.18448198849012 0.8166125283192969)"><path d="M81.55 -9.13 C86.69 -6.85, 96.56 -1.66, 106.7 1.3 M79.36 -9.04 C86.91 -7.73, 92.85 -4.51, 108.27 1.68" stroke="#000000" stroke-width="1" fill="none"></path></g></g><mask></mask><g transform="translate(152.66703839507556 462.184265433209) rotate(0 54.5 11.5)"><text x="0" y="18" font-family="Helvetica, Segoe UI Emoji" font-size="20px" fill="#000000" text-anchor="start" style="white-space: pre;" direction="ltr">transpilation</text></g><g transform="translate(10 596.9670255669603) rotate(0 73.5 23)"><text x="0" y="19" font-family="Helvetica, Segoe UI Emoji" font-size="20px" fill="#000000" text-anchor="start" style="white-space: pre;" direction="ltr">Why Typescript?</text><text x="0" y="42" font-family="Helvetica, Segoe UI Emoji" font-size="20px" fill="#000000" text-anchor="start" style="white-space: pre;" direction="ltr">   1.</text></g><g stroke-linecap="round" transform="translate(134.65357772498737 654.7870291215224) rotate(0 71.69382524277393 27.38053828003376)"><path d="M13.69 0 M13.69 0 C55.92 2.2, 94.35 2.42, 129.7 0 M13.69 0 C58.63 1.31, 103.25 0.42, 129.7 0 M129.7 0 C139.16 -1.35, 144.04 4.88, 143.39 13.69 M129.7 0 C139.41 2.05, 142.38 6.38, 143.39 13.69 M143.39 13.69 C142.83 18.39, 144.26 27.05, 143.39 41.07 M143.39 13.69 C143.42 23.18, 143.36 33.21, 143.39 41.07 M143.39 41.07 C144.24 48.61, 139.14 56.49, 129.7 54.76 M143.39 41.07 C142.33 48.51, 137.65 54.74, 129.7 54.76 M129.7 54.76 C84.09 56.15, 37.47 54.24, 13.69 54.76 M129.7 54.76 C85.65 55.28, 41.3 54.67, 13.69 54.76 M13.69 54.76 C6.34 54.73, -0.24 49.86, 0 41.07 M13.69 54.76 C6.61 54.76, 2.2 47.98, 0 41.07 M0 41.07 C-1.74 31.29, -1.7 21.52, 0 13.69 M0 41.07 C-0.28 31.15, -0.35 20.76, 0 13.69 M0 13.69 C-1.15 2.74, 4.53 -0.77, 13.69 0 M0 13.69 C-0.76 6.81, 3.46 0.83, 13.69 0" stroke="#000000" stroke-width="1" fill="none"></path></g><g stroke-opacity="0.3" fill-opacity="0.3" transform="translate(155.36906574152192 670.4655400551103) rotate(0 56 11.5)"><text x="0" y="18" font-family="Helvetica, Segoe UI Emoji" font-size="20px" fill="#000000" text-anchor="start" style="white-space: pre;" direction="ltr">add  amount</text></g><g stroke-linecap="round" transform="translate(453.85309690766474 607.9519159362305) rotate(0 77.4580897783502 82.86216508607549)"><path d="M32 0 M32 0 C52.48 1.27, 71.55 0.24, 122.92 0 M32 0 C51.22 -1.28, 71.64 -0.04, 122.92 0 M122.92 0 C142.56 0.52, 153.5 10.13, 154.92 32 M122.92 0 C146.27 -1.17, 155.08 10.43, 154.92 32 M154.92 32 C156.35 53.71, 153.66 77.41, 154.92 133.72 M154.92 32 C155.1 60.36, 156.59 90.1, 154.92 133.72 M154.92 133.72 C155.56 155.46, 144.2 167.21, 122.92 165.72 M154.92 133.72 C155.25 153.02, 145.48 165.1, 122.92 165.72 M122.92 165.72 C100.9 165.95, 74.46 163.95, 32 165.72 M122.92 165.72 C97.15 164.61, 73.05 165.73, 32 165.72 M32 165.72 C9.16 167.16, 1.67 154.25, 0 133.72 M32 165.72 C8.9 165.31, 1.21 156.26, 0 133.72 M0 133.72 C-1.64 112.24, -0.54 90.88, 0 32 M0 133.72 C0.25 97.43, 0.34 61.31, 0 32 M0 32 C-1.92 12.41, 10.36 0.43, 32 0 M0 32 C-1.71 12.1, 9.73 -0.91, 32 0" stroke="#000000" stroke-width="1" fill="none"></path></g><g transform="translate(486.27737009213286 637.140536115606) rotate(0 17 11.5)"><text x="0" y="18" font-family="Helvetica, Segoe UI Emoji" font-size="20px" fill="#000000" text-anchor="start" style="white-space: pre;" direction="ltr">100</text></g><g transform="translate(170.6805540380509 762.3344698342844) rotate(0 115 46.5)"><text x="0" y="18.25" font-family="Helvetica, Segoe UI Emoji" font-size="20px" fill="#000000" text-anchor="start" style="white-space: pre;" direction="ltr">balance += textBox.value;</text><text x="0" y="41.5" font-family="Helvetica, Segoe UI Emoji" font-size="20px" fill="#000000" text-anchor="start" style="white-space: pre;" direction="ltr">final balance = 10010</text><text x="0" y="64.75" font-family="Helvetica, Segoe UI Emoji" font-size="20px" fill="#000000" text-anchor="start" style="white-space: pre;" direction="ltr"></text><text x="0" y="88" font-family="Helvetica, Segoe UI Emoji" font-size="20px" fill="#000000" text-anchor="start" style="white-space: pre;" direction="ltr"></text></g><g transform="translate(289.5697572816879 668.6641884908126) rotate(0 11.5 11.5)"><text x="0" y="18" font-family="Helvetica, Segoe UI Emoji" font-size="20px" fill="#000000" text-anchor="start" style="white-space: pre;" direction="ltr">10</text></g><g transform="translate(135.55419853424917 841.2786966423346) rotate(0 106.5 11.5)"><text x="0" y="18" font-family="Helvetica, Segoe UI Emoji" font-size="20px" fill="#000000" text-anchor="start" style="white-space: pre;" direction="ltr">1. there was no err here</text></g></svg>