<svg version="1.1" xmlns="http://www.w3.org/2000/svg" viewBox="0 0 604 476.60003662109375" width="604" height="476.60003662109375" filter="invert(93%) hue-rotate(180deg)">
  <!-- svg-source:excalidraw -->
  
  <defs>
    <style>
      @font-face {
        font-family: "Virgil";
        src: url("https://excalidraw.com/Virgil.woff2");
      }
      @font-face {
        font-family: "Cascadia";
        src: url("https://excalidraw.com/Cascadia.woff2");
      }
    </style>
  </defs>
  <rect x="0" y="0" width="604" height="476.60003662109375" fill="#ffffff"></rect><g transform="translate(239.79998779296875 10) rotate(0 19.5 11.5)"><text x="0" y="18" font-family="Helvetica, Segoe UI Emoji" font-size="20px" fill="#000000" text-anchor="start" style="white-space: pre;" direction="ltr">JSX</text></g><g transform="translate(28.79998779296875 52) rotate(0 263.5 93)"><text x="0" y="18.25" font-family="Helvetica, Segoe UI Emoji" font-size="20px" fill="#000000" text-anchor="start" style="white-space: pre;" direction="ltr">Works mostly like html, allows us have variables within html</text><text x="0" y="41.5" font-family="Helvetica, Segoe UI Emoji" font-size="20px" fill="#000000" text-anchor="start" style="white-space: pre;" direction="ltr"></text><text x="0" y="64.75" font-family="Helvetica, Segoe UI Emoji" font-size="20px" fill="#000000" text-anchor="start" style="white-space: pre;" direction="ltr">Rules for writing JSX - </text><text x="0" y="88" font-family="Helvetica, Segoe UI Emoji" font-size="20px" fill="#000000" text-anchor="start" style="white-space: pre;" direction="ltr">    1. Everything b/w {} is treated as js express</text><text x="0" y="111.25" font-family="Helvetica, Segoe UI Emoji" font-size="20px" fill="#000000" text-anchor="start" style="white-space: pre;" direction="ltr">              const name = "Nikhil"</text><text x="0" y="134.5" font-family="Helvetica, Segoe UI Emoji" font-size="20px" fill="#000000" text-anchor="start" style="white-space: pre;" direction="ltr">                &lt;h1&gt;Welcome {name}&lt;/h1&gt;  </text><text x="0" y="157.75" font-family="Helvetica, Segoe UI Emoji" font-size="20px" fill="#000000" text-anchor="start" style="white-space: pre;" direction="ltr">    2. Instead of class use className. </text><text x="0" y="181" font-family="Helvetica, Segoe UI Emoji" font-size="20px" fill="#000000" text-anchor="start" style="white-space: pre;" direction="ltr"></text></g><g stroke-linecap="round" transform="translate(10 249) rotate(0 292 108.80001831054688)"><path d="M0.17 -0.48 C199.07 0.39, 396.97 0.52, 584.13 -0.37 M0.36 0.21 C198.8 -1.84, 397.25 -1.86, 584.39 0.34 M582.28 -1.06 C583.44 61.29, 585.06 120.96, 584.02 217.84 M584.04 -0.49 C583.84 55.31, 583.76 112.48, 584.27 218.26 M584.77 217.94 C359.19 216.55, 134.37 216.27, -0.53 218.28 M583.75 217.51 C368.51 216.37, 152.82 216.96, -0.36 217.69 M-1.39 218.57 C0.17 144.83, 1.44 72.77, 1.65 -0.7 M-0.22 217.03 C0.1 170.33, 0.69 122.43, -0.73 0.21" stroke="#000000" stroke-width="1" fill="none"></path></g><g transform="translate(229.79998779296875 263) rotate(0 37 23)"><text x="0" y="19" font-family="Helvetica, Segoe UI Emoji" font-size="20px" fill="#000000" text-anchor="start" style="white-space: pre;" direction="ltr">Promise</text><text x="0" y="42" font-family="Helvetica, Segoe UI Emoji" font-size="20px" fill="#000000" text-anchor="start" style="white-space: pre;" direction="ltr"></text></g><g transform="translate(26.79998779296875 296) rotate(0 278.5 46.5)"><text x="0" y="18.25" font-family="Helvetica, Segoe UI Emoji" font-size="20px" fill="#000000" text-anchor="start" style="white-space: pre;" direction="ltr">when the value is not available readily but MAY be available in </text><text x="0" y="41.5" font-family="Helvetica, Segoe UI Emoji" font-size="20px" fill="#000000" text-anchor="start" style="white-space: pre;" direction="ltr">future.</text><text x="0" y="64.75" font-family="Helvetica, Segoe UI Emoji" font-size="20px" fill="#000000" text-anchor="start" style="white-space: pre;" direction="ltr"></text><text x="0" y="88" font-family="Helvetica, Segoe UI Emoji" font-size="20px" fill="#000000" text-anchor="start" style="white-space: pre;" direction="ltr">fetching some data from network</text></g></svg>