<svg version="1.1" xmlns="http://www.w3.org/2000/svg" viewBox="0 0 1800.63596633522 1726.0720196257294" width="1800.63596633522" height="1726.0720196257294" filter="invert(93%) hue-rotate(180deg)">
  <!-- svg-source:excalidraw -->
  
  <defs>
    <style class="style-fonts">
      @font-face {
        font-family: "Virgil";
        src: url("https://excalidraw.com/Virgil.woff2");
      }
      @font-face {
        font-family: "Cascadia";
        src: url("https://excalidraw.com/Cascadia.woff2");
      }
    </style>
  </defs>
  <rect x="0" y="0" width="1800.63596633522" height="1726.0720196257294" fill="#ffffff"></rect><g stroke-linecap="round" transform="translate(298.21625028760457 10) rotate(0 186.98027038492876 155.27650621676923)"><path d="M32 0 M32 0 C119.48 -0.22, 205.96 1.18, 341.96 0 M32 0 C112.79 -1.38, 194.11 -1.52, 341.96 0 M341.96 0 C364.98 0.49, 372.85 11.79, 373.96 32 M341.96 0 C365.41 1.1, 374.41 8.63, 373.96 32 M373.96 32 C376.09 99.41, 374.54 171.18, 373.96 278.55 M373.96 32 C375.79 98.42, 374.5 165.18, 373.96 278.55 M373.96 278.55 C371.97 299.73, 361.93 309.44, 341.96 310.55 M373.96 278.55 C373.01 300.11, 361.15 309.8, 341.96 310.55 M341.96 310.55 C237.71 311.5, 131.16 310.55, 32 310.55 M341.96 310.55 C265.61 308.57, 187.87 308.13, 32 310.55 M32 310.55 C11.39 310.99, -0.34 297.9, 0 278.55 M32 310.55 C12.58 311.26, -1.09 298.71, 0 278.55 M0 278.55 C0.8 199.95, -1.08 120.53, 0 32 M0 278.55 C0.73 208.47, -0.21 138.54, 0 32 M0 32 C-1.27 12.56, 11.47 0.44, 32 0 M0 32 C1.27 11.16, 11.8 -0.55, 32 0" stroke="#000000" stroke-width="1" fill="none"></path></g><g transform="translate(336.40492543986704 48.55565655965552) rotate(0 117 46.5)"><text x="0" y="18.25" font-family="Helvetica, Segoe UI Emoji" font-size="20px" fill="#000000" text-anchor="start" style="white-space: pre;" direction="ltr">Express app (server) </text><text x="0" y="41.5" font-family="Helvetica, Segoe UI Emoji" font-size="20px" fill="#000000" text-anchor="start" style="white-space: pre;" direction="ltr"></text><text x="0" y="64.75" font-family="Helvetica, Segoe UI Emoji" font-size="20px" fill="#000000" text-anchor="start" style="white-space: pre;" direction="ltr"></text><text x="0" y="88" font-family="Helvetica, Segoe UI Emoji" font-size="20px" fill="#000000" text-anchor="start" style="white-space: pre;" direction="ltr">static server our client app</text></g><g transform="translate(73.40754207954058 390.2720428096077) rotate(0 55 11.5)"><text x="0" y="18" font-family="Helvetica, Segoe UI Emoji" font-size="20px" fill="#000000" text-anchor="start" style="white-space: pre;" direction="ltr">client - 3000</text></g><g transform="translate(384.3208330718717 350.10195240137114) rotate(0 56.5 11.5)"><text x="0" y="18" font-family="Helvetica, Segoe UI Emoji" font-size="20px" fill="#000000" text-anchor="start" style="white-space: pre;" direction="ltr">server- 5000</text></g><g stroke-linecap="round"><g transform="translate(97.90593434856441 368.8292123675569) rotate(0 28.721865298188618 36.60937931450985)"><path d="M0.2 -1.01 C9.94 11.26, 48.73 61.9, 58.59 74.22 M-1.15 1.08 C8.43 12.94, 47.71 60.34, 57.77 72.48" stroke="#000000" stroke-width="1" fill="none"></path></g></g><mask></mask><g stroke-linecap="round"><g transform="translate(146.18216176902695 364.5059521213766) rotate(0 -26.92586344305164 39.35297928301782)"><path d="M0.55 -1.11 C-8.43 12.01, -45.5 66.59, -54.4 79.81 M-0.63 0.93 C-9.19 14.2, -43.46 64.97, -52.25 77.98" stroke="#000000" stroke-width="1" fill="none"></path></g></g><mask></mask><g transform="translate(388.82421198261545 495.33590852963744) rotate(0 43.5 49.5)"><text x="0" y="19.75" font-family="Helvetica, Segoe UI Emoji" font-size="21.054447014569924px" fill="#000000" text-anchor="start" style="white-space: pre;" direction="ltr">GraphQL</text><text x="0" y="44.5" font-family="Helvetica, Segoe UI Emoji" font-size="21.054447014569924px" fill="#000000" text-anchor="start" style="white-space: pre;" direction="ltr"></text><text x="0" y="69.25" font-family="Helvetica, Segoe UI Emoji" font-size="21.054447014569924px" fill="#000000" text-anchor="start" style="white-space: pre;" direction="ltr"></text><text x="0" y="94" font-family="Helvetica, Segoe UI Emoji" font-size="21.054447014569924px" fill="#000000" text-anchor="start" style="white-space: pre;" direction="ltr"></text></g><g stroke-linecap="round" transform="translate(10 608.7241712105042) rotate(0 110.6029887965127 116.72757999215764)"><path d="M32 0 M32 0 C78.74 -0.46, 125.98 -0.82, 189.21 0 M32 0 C72.58 -1.03, 114.36 -0.94, 189.21 0 M189.21 0 C209.14 1.87, 222.85 12.1, 221.21 32 M189.21 0 C210.54 2.06, 220.41 12.3, 221.21 32 M221.21 32 C219.81 80.68, 219.32 131.36, 221.21 201.46 M221.21 32 C222.69 69.85, 222.51 108.92, 221.21 201.46 M221.21 201.46 C219.86 220.8, 211.85 231.58, 189.21 233.46 M221.21 201.46 C222.14 224.42, 211.23 235.2, 189.21 233.46 M189.21 233.46 C139.44 231.61, 88.58 233.36, 32 233.46 M189.21 233.46 C133.77 233.58, 79.86 234.36, 32 233.46 M32 233.46 C9.6 233.98, 0.16 222.29, 0 201.46 M32 233.46 C10.39 235.4, -2.06 222.38, 0 201.46 M0 201.46 C1.54 151.3, 2.24 103.77, 0 32 M0 201.46 C1.37 153.72, 2.43 104.96, 0 32 M0 32 C-0.87 12.36, 10.11 -0.52, 32 0 M0 32 C0.88 8.44, 12.71 -1.4, 32 0" stroke="#000000" stroke-width="1" fill="none"></path></g><g transform="translate(77.01027269457927 639.7141841838425) rotate(0 50.5 46.5)"><text x="0" y="18.25" font-family="Helvetica, Segoe UI Emoji" font-size="20px" fill="#000000" text-anchor="start" style="white-space: pre;" direction="ltr">Client</text><text x="0" y="41.5" font-family="Helvetica, Segoe UI Emoji" font-size="20px" fill="#000000" text-anchor="start" style="white-space: pre;" direction="ltr"></text><text x="0" y="64.75" font-family="Helvetica, Segoe UI Emoji" font-size="20px" fill="#000000" text-anchor="start" style="white-space: pre;" direction="ltr">mobile/web</text><text x="0" y="88" font-family="Helvetica, Segoe UI Emoji" font-size="20px" fill="#000000" text-anchor="start" style="white-space: pre;" direction="ltr">app</text></g><g stroke-linecap="round" transform="translate(540.3178895346156 613.7680023174908) rotate(0 92.58948689675924 61.24596692933778)"><path d="M30.62 0 M30.62 0 C59.8 0.28, 89.98 1.6, 154.56 0 M30.62 0 C69.65 0.65, 107.44 0.26, 154.56 0 M154.56 0 C176.7 -0.91, 184.29 12.17, 185.18 30.62 M154.56 0 C175.32 1.99, 186.48 11.48, 185.18 30.62 M185.18 30.62 C184.93 53.32, 184.39 75.97, 185.18 91.87 M185.18 30.62 C184.6 54.62, 185.16 78.94, 185.18 91.87 M185.18 91.87 C183.33 114.15, 173.88 123.47, 154.56 122.49 M185.18 91.87 C183.35 111.95, 173.02 123.01, 154.56 122.49 M154.56 122.49 C107.3 120.92, 58 123.27, 30.62 122.49 M154.56 122.49 C109.54 121.51, 62.35 122.53, 30.62 122.49 M30.62 122.49 C11.47 121.16, -0.51 113.48, 0 91.87 M30.62 122.49 C10.87 121, 2.1 112.83, 0 91.87 M0 91.87 C-2.28 68.63, 0.34 43.12, 0 30.62 M0 91.87 C0.94 71.3, 0.93 52.91, 0 30.62 M0 30.62 C-1.29 8.29, 9.5 -0.32, 30.62 0 M0 30.62 C2.29 11.71, 9.71 0.42, 30.62 0" stroke="#000000" stroke-width="1" fill="none"></path></g><g stroke-linecap="round" transform="translate(538.0687208865473 748.4215250695911) rotate(0 92.58948689675924 61.24596692933778)"><path d="M30.62 0 M30.62 0 C73.73 1.15, 114.44 -0.01, 154.56 0 M30.62 0 C60.65 -0.44, 90.09 -0.7, 154.56 0 M154.56 0 C175.06 1.77, 186.41 9.48, 185.18 30.62 M154.56 0 C173.68 -2.06, 184.23 10.77, 185.18 30.62 M185.18 30.62 C184.83 46.54, 184.35 59.04, 185.18 91.87 M185.18 30.62 C184.92 43.64, 184 58.55, 185.18 91.87 M185.18 91.87 C185.93 110.68, 173.57 121.09, 154.56 122.49 M185.18 91.87 C182.93 114.23, 175.28 120.81, 154.56 122.49 M154.56 122.49 C114.26 123.38, 74.83 123.71, 30.62 122.49 M154.56 122.49 C128.12 123.69, 101.39 122.35, 30.62 122.49 M30.62 122.49 C9 123.37, -0.95 113.81, 0 91.87 M30.62 122.49 C11.49 120.31, -1.9 112.55, 0 91.87 M0 91.87 C0.46 75, 1.54 58.27, 0 30.62 M0 91.87 C0.42 70.39, 0.02 51.37, 0 30.62 M0 30.62 C-1.11 10.08, 10.78 -0.32, 30.62 0 M0 30.62 C-1.84 12.44, 11.5 -1.3, 30.62 0" stroke="#000000" stroke-width="1" fill="none"></path></g><g stroke-linecap="round" transform="translate(808.2714555311765 609.3571073437797) rotate(0 98.35377891877897 111.3235321708762)"><path d="M32 0 M32 0 C78 1.87, 126.84 2.2, 164.71 0 M32 0 C64.5 0.37, 97.19 0.32, 164.71 0 M164.71 0 C185.3 1.78, 197.73 10.65, 196.71 32 M164.71 0 C185.27 -0.51, 197.57 11.84, 196.71 32 M196.71 32 C196.85 82.75, 194.44 135.51, 196.71 190.65 M196.71 32 C195.86 71.3, 195.43 110.21, 196.71 190.65 M196.71 190.65 C195.89 210.2, 185.6 221.22, 164.71 222.65 M196.71 190.65 C194.76 211.27, 188.14 220.68, 164.71 222.65 M164.71 222.65 C134.29 223.41, 101.34 220.15, 32 222.65 M164.71 222.65 C116.3 223.49, 67.09 223.14, 32 222.65 M32 222.65 C10.08 221.12, -1.22 212.85, 0 190.65 M32 222.65 C11.1 220.82, 1.85 213.97, 0 190.65 M0 190.65 C1.33 128.41, -2.24 68.28, 0 32 M0 190.65 C0.32 155.96, 0.63 118.97, 0 32 M0 32 C1.45 8.69, 10.44 1.96, 32 0 M0 32 C-0.83 9.89, 12.45 -0.57, 32 0" stroke="#000000" stroke-width="1" fill="none"></path></g><g transform="translate(892.1252344499554 709.1806395146555) rotate(0 14.5 11.5)"><text x="14.5" y="18" font-family="Helvetica, Segoe UI Emoji" font-size="20px" fill="#000000" text-anchor="middle" style="white-space: pre;" direction="ltr">DB</text></g><g transform="translate(575.9846285185514 644.0374444300223) rotate(0 65 11.5)"><text x="0" y="18" font-family="Helvetica, Segoe UI Emoji" font-size="20px" fill="#000000" text-anchor="start" style="white-space: pre;" direction="ltr">microservice 1</text></g><g transform="translate(573.7354598704832 778.6909671821227) rotate(0 65 11.5)"><text x="0" y="18" font-family="Helvetica, Segoe UI Emoji" font-size="20px" fill="#000000" text-anchor="start" style="white-space: pre;" direction="ltr">microservice 2</text></g><g stroke-linecap="round"><g transform="translate(383.2400111387158 561.8890717684335) rotate(0 1.282922394722732 161.04929359979678)"><path d="M0.13 0.85 C0.28 54.36, 1.13 267.36, 1.72 320.92 M-1.25 0.25 C-0.84 53.88, 3.07 267.95, 3.82 321.85" stroke="#000000" stroke-width="1" fill="none"></path></g></g><mask></mask><g stroke-linecap="round" transform="translate(293.893017527868 633.9431343403348) rotate(0 87.54566953299383 85.74435919836151)"><path d="M32 0 M32 0 C56.56 2.43, 78.57 2.15, 143.09 0 M32 0 C75.48 -1.19, 119.21 0.28, 143.09 0 M143.09 0 C163.5 0.77, 173.16 12.39, 175.09 32 M143.09 0 C163.29 -2.14, 175.27 12.85, 175.09 32 M175.09 32 C175.88 56.71, 174.77 78.16, 175.09 139.49 M175.09 32 C174.61 69.01, 174.43 104.16, 175.09 139.49 M175.09 139.49 C173.64 159.47, 163.96 171.08, 143.09 171.49 M175.09 139.49 C176.58 162.38, 163.67 170.4, 143.09 171.49 M143.09 171.49 C114.75 172.14, 85.7 171.14, 32 171.49 M143.09 171.49 C111.79 171.76, 78.44 173.07, 32 171.49 M32 171.49 C9.45 172.15, 1.74 160.55, 0 139.49 M32 171.49 C12.14 170.1, -2.27 162.49, 0 139.49 M0 139.49 C-0.3 108.02, -0.24 74.57, 0 32 M0 139.49 C1.33 107.84, 0.08 73.95, 0 32 M0 32 C-0.22 9.95, 10.07 -1.85, 32 0 M0 32 C0.46 11.92, 8.67 -0.76, 32 0" stroke="#000000" stroke-width="1" fill="none"></path></g><g transform="translate(321.99405795259975 668.3556905480391) rotate(0 72 11.5)"><text x="0" y="18" font-family="Helvetica, Segoe UI Emoji" font-size="20px" fill="#000000" text-anchor="start" style="white-space: pre;" direction="ltr">GraphQL server</text></g><g stroke-linecap="round"><g transform="translate(484.1156987393774 680.0577178944854) rotate(0 31.58380033379933 -7.729976700522229)"><path d="M-0.84 -0.84 C9.91 -3.54, 53.49 -12.47, 64.01 -15.07 M0.92 1.33 C11.6 -1.2, 52.77 -13.99, 63.37 -16.79" stroke="#000000" stroke-width="1" fill="none"></path></g><g transform="translate(484.1156987393774 680.0577178944854) rotate(0 31.58380033379933 -7.729976700522229)"><path d="M37.74 1.89 C46.59 -5.5, 50.64 -8.75, 62.74 -15.75 M39.24 0.86 C47.97 -5.14, 56.31 -12.02, 63.17 -16.37" stroke="#000000" stroke-width="1" fill="none"></path></g><g transform="translate(484.1156987393774 680.0577178944854) rotate(0 31.58380033379933 -7.729976700522229)"><path d="M32.04 -17.82 C42.57 -20.02, 48.1 -18.13, 62.74 -15.75 M33.54 -18.85 C44.29 -17.74, 54.7 -17.47, 63.17 -16.37" stroke="#000000" stroke-width="1" fill="none"></path></g></g><mask></mask><g stroke-linecap="round"><g transform="translate(480.51299561078235 693.0274436601389) rotate(0 23.18402954078755 60.21544564277929)"><path d="M0.05 -0.7 C7.92 19.04, 39.72 99.74, 47.76 119.6 M-1.39 1.55 C6.24 22.01, 38.39 101.53, 46.53 121.13" stroke="#000000" stroke-width="1" fill="none"></path></g><g transform="translate(480.51299561078235 693.0274436601389) rotate(0 23.18402954078755 60.21544564277929)"><path d="M25.21 98.04 C33.47 106.5, 38.45 114.25, 47.8 122.32 M26.14 99.46 C31.39 105.84, 37.12 110.42, 46.31 120.82" stroke="#000000" stroke-width="1" fill="none"></path></g><g transform="translate(480.51299561078235 693.0274436601389) rotate(0 23.18402954078755 60.21544564277929)"><path d="M44.21 90.28 C46.04 101.41, 44.52 111.81, 47.8 122.32 M45.13 91.7 C45.18 100.27, 45.71 106.97, 46.31 120.82" stroke="#000000" stroke-width="1" fill="none"></path></g></g><mask></mask><g stroke-linecap="round" transform="translate(136.0946095008269 1090.855933886603) rotate(0 145.18893333373654 119.24946805920786)"><path d="M32 0 M32 0 C106.5 -0.7, 178.89 -0.13, 258.38 0 M32 0 C119.93 -0.5, 208.21 0.69, 258.38 0 M258.38 0 C279.35 -1.61, 290.84 9.03, 290.38 32 M258.38 0 C278.34 1.33, 289.2 11.89, 290.38 32 M290.38 32 C293.49 68.28, 290.77 108, 290.38 206.5 M290.38 32 C291.13 67.92, 292.38 102.49, 290.38 206.5 M290.38 206.5 C289.2 225.91, 279.94 236.89, 258.38 238.5 M290.38 206.5 C289.69 229.67, 279.84 236.27, 258.38 238.5 M258.38 238.5 C181.34 238.04, 106.19 239.9, 32 238.5 M258.38 238.5 C179.77 239.58, 100.48 240.4, 32 238.5 M32 238.5 C9.53 240.14, -1.12 228.92, 0 206.5 M32 238.5 C10.65 238.81, -0.91 228.78, 0 206.5 M0 206.5 C-0.81 159.44, 1.18 109.24, 0 32 M0 206.5 C-0.55 143.96, 0.15 82.37, 0 32 M0 32 C1.88 11.05, 12.63 -0.41, 32 0 M0 32 C-0.61 12.08, 11.24 -0.73, 32 0" stroke="#000000" stroke-width="1" fill="none"></path></g><g stroke-linecap="round" transform="translate(1029.4772956919842 1112.3845866467514) rotate(0 142.30675983628316 141.2259516463489)"><path d="M32 0 M32 0 C85.03 -0.37, 141.62 0.35, 252.61 0 M32 0 C101.47 -0.94, 171.75 -1.22, 252.61 0 M252.61 0 C274.57 0.75, 284.62 9.63, 284.61 32 M252.61 0 C273.22 -1.05, 283.06 8.67, 284.61 32 M284.61 32 C284.26 119.67, 285.51 204.16, 284.61 250.45 M284.61 32 C283.03 93.69, 282.48 154.91, 284.61 250.45 M284.61 250.45 C284.53 270.44, 272.86 283.15, 252.61 282.45 M284.61 250.45 C283.86 270.64, 275.82 284.51, 252.61 282.45 M252.61 282.45 C189.81 281.06, 124.25 280.72, 32 282.45 M252.61 282.45 C207.58 282.98, 162.59 282.31, 32 282.45 M32 282.45 C12.05 281.75, -1.58 269.85, 0 250.45 M32 282.45 C11.15 283.84, -2.19 270.91, 0 250.45 M0 250.45 C2.17 193.51, 1.34 137.43, 0 32 M0 250.45 C1.53 180.6, 1.97 111.36, 0 32 M0 32 C0.59 10.69, 9.19 1.23, 32 0 M0 32 C1.13 12.72, 11.52 -0.41, 32 0" stroke="#000000" stroke-width="1" fill="none"></path></g><g transform="translate(187.97351256344098 1116.4418921670485) rotate(0 74 46.5)"><text x="0" y="18.25" font-family="Helvetica, Segoe UI Emoji" font-size="20px" fill="#000000" text-anchor="start" style="white-space: pre;" direction="ltr">userData</text><text x="0" y="41.5" font-family="Helvetica, Segoe UI Emoji" font-size="20px" fill="#000000" text-anchor="start" style="white-space: pre;" direction="ltr"></text><text x="0" y="64.75" font-family="Helvetica, Segoe UI Emoji" font-size="20px" fill="#000000" text-anchor="start" style="white-space: pre;" direction="ltr">friendList</text><text x="0" y="88" font-family="Helvetica, Segoe UI Emoji" font-size="20px" fill="#000000" text-anchor="start" style="white-space: pre;" direction="ltr">[id1, id2,...id105]</text></g><g transform="translate(1082.7974229355423 1157.4250923460122) rotate(0 74 46.5)"><text x="0" y="18.25" font-family="Helvetica, Segoe UI Emoji" font-size="20px" fill="#000000" text-anchor="start" style="white-space: pre;" direction="ltr">userData</text><text x="0" y="41.5" font-family="Helvetica, Segoe UI Emoji" font-size="20px" fill="#000000" text-anchor="start" style="white-space: pre;" direction="ltr"></text><text x="0" y="64.75" font-family="Helvetica, Segoe UI Emoji" font-size="20px" fill="#000000" text-anchor="start" style="white-space: pre;" direction="ltr">friendList</text><text x="0" y="88" font-family="Helvetica, Segoe UI Emoji" font-size="20px" fill="#000000" text-anchor="start" style="white-space: pre;" direction="ltr">[id1, id2,...id105]</text></g><g stroke-linecap="round"><g transform="translate(431.51626604562216 1124.7213487926851) rotate(0 120.81989349856195 -1.826715620698451)"><path d="M-0.85 -0.87 C39.42 -1.37, 201.73 -2.81, 242.49 -3.08 M0.9 1.28 C40.91 0.44, 200.95 -4, 241.37 -4.94" stroke="#000000" stroke-width="1" fill="none"></path></g><g transform="translate(431.51626604562216 1124.7213487926851) rotate(0 120.81989349856195 -1.826715620698451)"><path d="M212 5.5 C224.7 3.69, 236 -3.25, 243.23 -5.09 M213.41 6.61 C221.12 3.88, 228.3 -0.18, 241.68 -4.66" stroke="#000000" stroke-width="1" fill="none"></path></g><g transform="translate(431.51626604562216 1124.7213487926851) rotate(0 120.81989349856195 -1.826715620698451)"><path d="M211.47 -15.02 C224.35 -9.2, 235.85 -8.52, 243.23 -5.09 M212.89 -13.9 C220.92 -11.1, 228.24 -9.63, 241.68 -4.66" stroke="#000000" stroke-width="1" fill="none"></path></g></g><mask></mask><g stroke-linecap="round"><g transform="translate(454.48596432483237 1199.5700051073964) rotate(0 121.45831972895331 -1.6745042120367089)"><path d="M-1.15 -1.02 C39 -1.91, 201.17 -3.89, 241.86 -4.41 M0.45 1.06 C40.88 0.22, 203.75 -2.6, 244.07 -3.29" stroke="#000000" stroke-width="1" fill="none"></path></g><g transform="translate(454.48596432483237 1199.5700051073964) rotate(0 121.45831972895331 -1.6745042120367089)"><path d="M214.36 5.85 C225.33 3.9, 236.5 0.85, 243.02 -3.97 M216.99 7.63 C226.49 2.92, 234.91 -0.31, 244.37 -3.84" stroke="#000000" stroke-width="1" fill="none"></path></g><g transform="translate(454.48596432483237 1199.5700051073964) rotate(0 121.45831972895331 -1.6745042120367089)"><path d="M214 -14.67 C225.27 -8.78, 236.57 -3.99, 243.02 -3.97 M216.64 -12.89 C226.1 -10.63, 234.64 -6.88, 244.37 -3.84" stroke="#000000" stroke-width="1" fill="none"></path></g></g><mask></mask><g stroke-linecap="round"><g transform="translate(675.7795491589446 1150.6608140672138) rotate(0 -120.78022075612432 4.675982531916588)"><path d="M-0.65 -1.05 C-40.83 0.58, -201.56 8.46, -241.67 10.4 M1.21 1.02 C-39.11 2.21, -202.23 7.19, -242.77 8.44" stroke="#000000" stroke-width="1" fill="none"></path></g><g transform="translate(675.7795491589446 1150.6608140672138) rotate(0 -120.78022075612432 4.675982531916588)"><path d="M-216.65 -3.16 C-221.38 0.14, -228.08 4.72, -244.34 6.8 M-215.88 -3.62 C-222.06 -0.39, -227.52 3.59, -242.99 7.67" stroke="#000000" stroke-width="1" fill="none"></path></g><g transform="translate(675.7795491589446 1150.6608140672138) rotate(0 -120.78022075612432 4.675982531916588)"><path d="M-216.02 17.35 C-221.01 15.46, -227.87 14.85, -244.34 6.8 M-215.25 16.89 C-221.6 15.21, -227.21 14.29, -242.99 7.67" stroke="#000000" stroke-width="1" fill="none"></path></g></g><mask></mask><g stroke-linecap="round"><g transform="translate(698.7492474381548 1225.509470381925) rotate(0 -120.77048171928487 5.46097047536864)"><path d="M-1.02 -0.96 C-41.54 0.94, -202.04 8.28, -242.19 10.26 M0.65 1.15 C-39.57 3.37, -199.3 10.58, -239.9 11.89" stroke="#000000" stroke-width="1" fill="none"></path></g><g transform="translate(698.7492474381548 1225.509470381925) rotate(0 -120.77048171928487 5.46097047536864)"><path d="M-213.74 -0.83 C-222.43 3.7, -231.85 7.81, -240.58 12.68 M-211.96 1.35 C-218.96 3.06, -224.76 6.18, -240.44 11.13" stroke="#000000" stroke-width="1" fill="none"></path></g><g transform="translate(698.7492474381548 1225.509470381925) rotate(0 -120.77048171928487 5.46097047536864)"><path d="M-212.93 19.68 C-221.73 16.46, -231.45 12.84, -240.58 12.68 M-211.15 21.85 C-218.47 18.98, -224.45 17.5, -240.44 11.13" stroke="#000000" stroke-width="1" fill="none"></path></g></g><mask></mask><g transform="translate(518.7016707630448 1102.751650513475) rotate(0 42.49999999999994 11.5)"><text x="0" y="18" font-family="Helvetica, Segoe UI Emoji" font-size="20px" fill="#000000" text-anchor="start" style="white-space: pre;" direction="ltr">GET /id 1</text></g><g transform="translate(538.1562456683033 1174.0851422245696) rotate(0 40 11.5)"><text x="0" y="18" font-family="Helvetica, Segoe UI Emoji" font-size="20px" fill="#000000" text-anchor="start" style="white-space: pre;" direction="ltr">GET /id2</text></g><g stroke-linecap="round"><g transform="translate(456.5600284365007 1280.1829809305705) rotate(0 121.89049884037263 -2.536649189515174)"><path d="M0.8 0.28 C41.3 -0.28, 203.49 -2.8, 244.01 -3.36 M-0.23 -0.62 C40.11 -1.56, 203.02 -4.61, 243.69 -5.35" stroke="#000000" stroke-width="1" fill="none"></path></g><g transform="translate(456.5600284365007 1280.1829809305705) rotate(0 121.89049884037263 -2.536649189515174)"><path d="M216.16 7.42 C226.98 2.98, 238.37 -3.52, 245.5 -6.96 M215.4 5.21 C223.41 2.37, 231.21 -1.04, 244.27 -5.09" stroke="#000000" stroke-width="1" fill="none"></path></g><g transform="translate(456.5600284365007 1280.1829809305705) rotate(0 121.89049884037263 -2.536649189515174)"><path d="M215.78 -13.1 C226.75 -9.56, 238.28 -8.1, 245.5 -6.96 M215.02 -15.31 C223.27 -12.13, 231.18 -9.52, 244.27 -5.09" stroke="#000000" stroke-width="1" fill="none"></path></g></g><mask></mask><g stroke-linecap="round"><g transform="translate(700.8233115498232 1306.122446205099) rotate(0 -120.83859466218723 6.009376158586065)"><path d="M0.28 1.19 C-39.91 2.93, -200.95 9.8, -241.14 11.25 M-1.03 0.77 C-41.35 2.14, -201.91 8.02, -241.96 9.73" stroke="#000000" stroke-width="1" fill="none"></path></g><g transform="translate(700.8233115498232 1306.122446205099) rotate(0 -120.83859466218723 6.009376158586065)"><path d="M-212.2 -1.22 C-220.46 2.74, -231.06 7.02, -243.56 9.6 M-214.41 -2.06 C-223.9 1.55, -234.2 7.09, -241.69 9.24" stroke="#000000" stroke-width="1" fill="none"></path></g><g transform="translate(700.8233115498232 1306.122446205099) rotate(0 -120.83859466218723 6.009376158586065)"><path d="M-211.4 19.29 C-220.04 17.14, -230.87 15.3, -243.56 9.6 M-213.61 18.44 C-223.52 14.63, -234.11 12.75, -241.69 9.24" stroke="#000000" stroke-width="1" fill="none"></path></g></g><mask></mask><g transform="translate(546.2623277076422 1249.7419079250658) rotate(0 42.5 11.5)"><text x="0" y="18" font-family="Helvetica, Segoe UI Emoji" font-size="20px" fill="#000000" text-anchor="start" style="white-space: pre;" direction="ltr">GET /id 3</text></g><g stroke-linecap="round"><g transform="translate(463.6778549390474 1450.8635624550648) rotate(0 120.75105392470175 -2.1343040581587047)"><path d="M-0.96 0.08 C39.63 -0.64, 202 -3.8, 242.46 -4.35 M0.73 -0.93 C41.23 -1.5, 200.75 -2.46, 241.33 -3.2" stroke="#000000" stroke-width="1" fill="none"></path></g><g transform="translate(463.6778549390474 1450.8635624550648) rotate(0 120.75105392470175 -2.1343040581587047)"><path d="M213.38 6.79 C217.94 3.7, 225.78 3.92, 239.42 -3.59 M213.31 7.71 C220.07 3.93, 226.73 2.31, 242.29 -3.42" stroke="#000000" stroke-width="1" fill="none"></path></g><g transform="translate(463.6778549390474 1450.8635624550648) rotate(0 120.75105392470175 -2.1343040581587047)"><path d="M213.15 -13.73 C217.75 -12.49, 225.63 -7.94, 239.42 -3.59 M213.07 -12.81 C219.86 -11.55, 226.57 -8.12, 242.29 -3.42" stroke="#000000" stroke-width="1" fill="none"></path></g></g><mask></mask><g stroke-linecap="round"><g transform="translate(707.9411380523699 1476.8030277295934) rotate(0 -121.02351417340674 4.250359328270406)"><path d="M0.08 -0.36 C-40.27 1.32, -201.95 7.26, -242.12 9.08 M-1.34 -1.59 C-41.3 0.28, -199.77 8.42, -239.8 10.09" stroke="#000000" stroke-width="1" fill="none"></path></g><g transform="translate(707.9411380523699 1476.8030277295934) rotate(0 -121.02351417340674 4.250359328270406)"><path d="M-212.72 -2.72 C-222.08 2.63, -227.81 3.47, -240.19 9.01 M-211.8 -1.59 C-220.52 1.41, -227.28 5.97, -240.03 10.26" stroke="#000000" stroke-width="1" fill="none"></path></g><g transform="translate(707.9411380523699 1476.8030277295934) rotate(0 -121.02351417340674 4.250359328270406)"><path d="M-211.75 17.77 C-221.23 17.07, -227.25 11.85, -240.19 9.01 M-210.83 18.91 C-219.93 16.18, -226.96 14.99, -240.03 10.26" stroke="#000000" stroke-width="1" fill="none"></path></g></g><mask></mask><g transform="translate(553.3801542101888 1420.42248944956) rotate(0 47.5 23)"><text x="0" y="19" font-family="Helvetica, Segoe UI Emoji" font-size="20px" fill="#000000" text-anchor="start" style="white-space: pre;" direction="ltr">GET /id 10</text><text x="0" y="42" font-family="Helvetica, Segoe UI Emoji" font-size="20px" fill="#000000" text-anchor="start" style="white-space: pre;" direction="ltr"></text></g><g transform="translate(206.70755783755794 1036.4618937068158) rotate(0 231.50000000000006 11.5)"><text x="0" y="18" font-family="Helvetica, Segoe UI Emoji" font-size="20px" fill="#000000" text-anchor="start" style="white-space: pre;" direction="ltr">REST api, fetching Friends details for logged in user</text></g><g transform="translate(466.1021830964021 1332.604079882752) rotate(0 3.5 46.5)"><text x="0" y="18.25" font-family="Helvetica, Segoe UI Emoji" font-size="20px" fill="#000000" text-anchor="start" style="white-space: pre;" direction="ltr">.</text><text x="0" y="41.5" font-family="Helvetica, Segoe UI Emoji" font-size="20px" fill="#000000" text-anchor="start" style="white-space: pre;" direction="ltr">.</text><text x="0" y="64.75" font-family="Helvetica, Segoe UI Emoji" font-size="20px" fill="#000000" text-anchor="start" style="white-space: pre;" direction="ltr">.</text><text x="0" y="88" font-family="Helvetica, Segoe UI Emoji" font-size="20px" fill="#000000" text-anchor="start" style="white-space: pre;" direction="ltr"></text></g><g stroke-linecap="round" transform="translate(749.9952555971571 1100.3130158559438) rotate(0 107.7208015558374 168.606524284437)"><path d="M32 0 M32 0 C90.94 -0.51, 146.99 0.76, 183.44 0 M32 0 C86.67 -0.4, 142.95 -1.51, 183.44 0 M183.44 0 C203.19 -0.54, 213.88 9.83, 215.44 32 M183.44 0 C202.84 0.75, 216.22 12.38, 215.44 32 M215.44 32 C216.38 103.15, 217.64 172.3, 215.44 305.21 M215.44 32 C216.34 138.28, 216.21 244.88, 215.44 305.21 M215.44 305.21 C213.9 327.58, 206.36 338.28, 183.44 337.21 M215.44 305.21 C217.1 328.31, 205.6 338.89, 183.44 337.21 M183.44 337.21 C147.28 338.15, 116.31 337.35, 32 337.21 M183.44 337.21 C131.81 338.09, 78.91 338.39, 32 337.21 M32 337.21 C10.34 336.47, 0.98 324.98, 0 305.21 M32 337.21 C12.75 337.92, -1.42 328.19, 0 305.21 M0 305.21 C0.69 217.88, 0.14 133.07, 0 32 M0 305.21 C1.46 225.87, 2.41 146.94, 0 32 M0 32 C1.69 12.27, 9.97 -1.04, 32 0 M0 32 C-1.02 9.34, 10.02 -1.49, 32 0" stroke="#000000" stroke-width="1" fill="none"></path></g><g transform="translate(802.0542498378915 1158.3233160369664) rotate(0 30 11.5)"><text x="0" y="18" font-family="Helvetica, Segoe UI Emoji" font-size="20px" fill="#000000" text-anchor="start" style="white-space: pre;" direction="ltr">Server</text></g><g stroke-linecap="round"><g transform="translate(1004.526154670356 1052.892462037933) rotate(0 -1.2397377553713795 247.6310988803648)"><path d="M-1.14 1.16 C-1.51 83.75, -1.99 412.42, -2.55 494.54 M0.46 0.72 C0.05 83.07, -2.52 410.49, -2.94 492.93" stroke="#000000" stroke-width="1" fill="none"></path></g></g><mask></mask><g transform="translate(1141.428873556968 1064.7881511783617) rotate(0 66 11.5)"><text x="0" y="18" font-family="Helvetica, Segoe UI Emoji" font-size="20px" fill="#000000" text-anchor="start" style="white-space: pre;" direction="ltr">Graph ql setup</text></g><g stroke-linecap="round"><g transform="translate(1334.5337832388182 1205.647087059263) rotate(0 99.32993364964477 -0.35816992405761994)"><path d="M0.17 0.87 C33.51 1.06, 166.71 0.46, 199.86 0.08 M-1.2 0.28 C32.08 0.23, 166.16 -1.5, 199.43 -1.62" stroke="#000000" stroke-width="1" fill="none"></path></g><g transform="translate(1334.5337832388182 1205.647087059263) rotate(0 99.32993364964477 -0.35816992405761994)"><path d="M172.77 10.53 C180.83 6.15, 186.45 2.49, 200.6 -2.99 M170.69 9.21 C180.15 6.47, 186.7 2.45, 199.06 -1.48" stroke="#000000" stroke-width="1" fill="none"></path></g><g transform="translate(1334.5337832388182 1205.647087059263) rotate(0 99.32993364964477 -0.35816992405761994)"><path d="M172.59 -9.99 C180.51 -8.48, 186.19 -6.24, 200.6 -2.99 M170.51 -11.32 C179.85 -8.25, 186.45 -6.47, 199.06 -1.48" stroke="#000000" stroke-width="1" fill="none"></path></g></g><mask></mask><g stroke-linecap="round"><g transform="translate(1539.8879165416238 1245.9973511049502) rotate(0 -106.61920958408064 3.7988699194957007)"><path d="M-0.54 -0.8 C-36.13 0.61, -177.97 5.77, -213.53 7.47 M1.38 1.4 C-34.4 2.99, -178.55 7.37, -214.62 8.39" stroke="#000000" stroke-width="1" fill="none"></path></g><g transform="translate(1539.8879165416238 1245.9973511049502) rotate(0 -106.61920958408064 3.7988699194957007)"><path d="M-188.07 -3.13 C-197.22 -0.55, -202.37 2.79, -216.01 8.29 M-187.07 -2.04 C-194.8 1.41, -204.15 4.79, -214.88 9.39" stroke="#000000" stroke-width="1" fill="none"></path></g><g transform="translate(1539.8879165416238 1245.9973511049502) rotate(0 -106.61920958408064 3.7988699194957007)"><path d="M-187.46 17.39 C-196.63 13.76, -201.96 10.9, -216.01 8.29 M-186.46 18.47 C-194.5 15.78, -204.03 13.02, -214.88 9.39" stroke="#000000" stroke-width="1" fill="none"></path></g></g><mask></mask><g stroke-linecap="round" transform="translate(1553.5781444519753 1076.6702765745395) rotate(0 118.52891094162248 159.96001753529845)"><path d="M32 0 M32 0 C74.77 0.45, 120.81 -0.29, 205.06 0 M32 0 C78.38 1.36, 125.13 0.43, 205.06 0 M205.06 0 C227.7 1.09, 235.52 12.04, 237.06 32 M205.06 0 C228.66 1.86, 236.94 9.12, 237.06 32 M237.06 32 C238.85 126.24, 239.86 220.07, 237.06 287.92 M237.06 32 C236.42 117.89, 236.5 205, 237.06 287.92 M237.06 287.92 C237.77 308.67, 226.12 321.05, 205.06 319.92 M237.06 287.92 C238.43 310.56, 228.6 319.95, 205.06 319.92 M205.06 319.92 C157.8 318.48, 114.07 319.02, 32 319.92 M205.06 319.92 C148.34 319.78, 94.12 319.32, 32 319.92 M32 319.92 C9.2 318.25, 1.8 311.18, 0 287.92 M32 319.92 C9.63 321.64, -0.17 307.61, 0 287.92 M0 287.92 C-1.63 220.44, 0.77 149.92, 0 32 M0 287.92 C-0.24 190.1, -1.25 92.94, 0 32 M0 32 C-1.11 9.09, 9.71 0.41, 32 0 M0 32 C0.31 8.86, 8.8 -2.11, 32 0" stroke="#000000" stroke-width="1" fill="none"></path></g><g transform="translate(1601.854344385994 1150.8927408342397) rotate(0 30 11.5)"><text x="0" y="18" font-family="Helvetica, Segoe UI Emoji" font-size="20px" fill="#000000" text-anchor="start" style="white-space: pre;" direction="ltr">Server</text></g><g stroke-linecap="round" transform="translate(1389.2948597988857 1109.0946322183381) rotate(0 55.84189849322331 126.09463698727063)"><path d="M27.92 0 M27.92 0 C50.76 1.02, 70.15 1.75, 83.76 0 M27.92 0 C43.67 -1.16, 60.05 -0.17, 83.76 0 M83.76 0 C102.65 -1.57, 110.06 7.48, 111.68 27.92 M83.76 0 C100.67 -1.68, 111.15 9.73, 111.68 27.92 M111.68 27.92 C112.18 89.36, 110.83 152.24, 111.68 224.27 M111.68 27.92 C110.36 90.48, 108.98 153.79, 111.68 224.27 M111.68 224.27 C112.92 242.68, 101.85 250.71, 83.76 252.19 M111.68 224.27 C109.4 244.74, 100.98 252.62, 83.76 252.19 M83.76 252.19 C63.39 251.14, 42.02 251.25, 27.92 252.19 M83.76 252.19 C67.9 253.23, 50.29 253.62, 27.92 252.19 M27.92 252.19 C8.25 252.35, 0.84 242.59, 0 224.27 M27.92 252.19 C9.6 250.22, -0.01 243.82, 0 224.27 M0 224.27 C-3.19 166.07, -0.6 112.88, 0 27.92 M0 224.27 C-0.51 148.21, -0.09 72.64, 0 27.92 M0 27.92 C1.15 10.63, 9.61 0.78, 27.92 0 M0 27.92 C-1.08 11.46, 10.39 0.4, 27.92 0" stroke="#000000" stroke-width="1" fill="none"></path></g><g transform="translate(1410.911078570456 1138.2832798841569) rotate(0 28.5 23)"><text x="0" y="19" font-family="Helvetica, Segoe UI Emoji" font-size="20px" fill="#000000" text-anchor="start" style="white-space: pre;" direction="ltr">gQL</text><text x="0" y="42" font-family="Helvetica, Segoe UI Emoji" font-size="20px" fill="#000000" text-anchor="start" style="white-space: pre;" direction="ltr">server</text></g><g transform="translate(359.37210291177314 1623.0720196257294) rotate(0 231.5 46.5)"><text x="0" y="18.25" font-family="Helvetica, Segoe UI Emoji" font-size="20px" fill="#000000" text-anchor="start" style="white-space: pre;" direction="ltr">cons of GraphQL</text><text x="0" y="41.5" font-family="Helvetica, Segoe UI Emoji" font-size="20px" fill="#000000" text-anchor="start" style="white-space: pre;" direction="ltr"></text><text x="0" y="64.75" font-family="Helvetica, Segoe UI Emoji" font-size="20px" fill="#000000" text-anchor="start" style="white-space: pre;" direction="ltr">1. Every request will be a POST request</text><text x="0" y="88" font-family="Helvetica, Segoe UI Emoji" font-size="20px" fill="#000000" text-anchor="start" style="white-space: pre;" direction="ltr">2. Even in case of err the status code will be generic</text></g></svg>