<svg version="1.1" xmlns="http://www.w3.org/2000/svg" viewBox="0 0 1251.227161593069 951.2499465942383" width="1251.227161593069" height="951.2499465942383" filter="invert(93%) hue-rotate(180deg)">
  <!-- svg-source:excalidraw -->
  
  <defs>
    <style class="style-fonts">
      @font-face {
        font-family: "Virgil";
        src: url("https://excalidraw.com/Virgil.woff2");
      }
      @font-face {
        font-family: "Cascadia";
        src: url("https://excalidraw.com/Cascadia.woff2");
      }
    </style>
  </defs>
  <rect x="0" y="0" width="1251.227161593069" height="951.2499465942383" fill="#ffffff"></rect><g transform="translate(551.8239542898581 56.999961853027344) rotate(0 19 11.5)"><text x="0" y="18" font-family="Helvetica, Segoe UI Emoji" font-size="20px" fill="#000000" text-anchor="start" style="white-space: pre;" direction="ltr">App</text></g><g stroke-linecap="round"><g transform="translate(557.4239909109518 91.5999984741211) rotate(0 -123.31900526173416 26.257795895387304)"><path d="M-0.1 -0.17 C-35.6 -0.63, -172.77 -11.79, -213.85 -2.01 C-254.92 7.77, -241.36 48.5, -246.53 58.53 M-1.62 -1.3 C-37.22 -1.66, -174.5 -10.35, -214.92 -0.68 C-255.34 8.98, -239.23 47.24, -244.13 56.67" stroke="#000000" stroke-width="1" fill="none"></path></g><g transform="translate(557.4239909109518 91.5999984741211) rotate(0 -123.31900526173416 26.257795895387304)"><path d="M-253.07 27.54 C-251.3 32.97, -247.1 42.24, -243.19 55.27 M-252.01 28.04 C-250.55 33.32, -248.88 39.28, -243.5 57.29" stroke="#000000" stroke-width="1" fill="none"></path></g><g transform="translate(557.4239909109518 91.5999984741211) rotate(0 -123.31900526173416 26.257795895387304)"><path d="M-232.58 28.69 C-235.5 33.84, -235.98 42.85, -243.19 55.27 M-231.52 29.19 C-234.35 34.15, -236.97 39.87, -243.5 57.29" stroke="#000000" stroke-width="1" fill="none"></path></g></g><mask></mask><g transform="translate(99.02396649688933 156.19998931884766) rotate(0 128.5 46.5)"><text x="0" y="18.25" font-family="Helvetica, Segoe UI Emoji" font-size="20px" fill="#000000" text-anchor="start" style="white-space: pre;" direction="ltr">Login </text><text x="0" y="41.5" font-family="Helvetica, Segoe UI Emoji" font-size="20px" fill="#000000" text-anchor="start" style="white-space: pre;" direction="ltr"></text><text x="0" y="64.75" font-family="Helvetica, Segoe UI Emoji" font-size="20px" fill="#000000" text-anchor="start" style="white-space: pre;" direction="ltr">handleLogin = {setLoginData</text><text x="0" y="88" font-family="Helvetica, Segoe UI Emoji" font-size="20px" fill="#000000" text-anchor="start" style="white-space: pre;" direction="ltr">}</text></g><g transform="translate(394.3239542898581 168.9000015258789) rotate(0 26.5 23)"><text x="0" y="19" font-family="Helvetica, Segoe UI Emoji" font-size="20px" fill="#000000" text-anchor="start" style="white-space: pre;" direction="ltr">Users</text><text x="0" y="42" font-family="Helvetica, Segoe UI Emoji" font-size="20px" fill="#000000" text-anchor="start" style="white-space: pre;" direction="ltr"></text></g><g transform="translate(515.8239542898581 164.79996490478516) rotate(0 149.5 11.5)"><text x="0" y="18" font-family="Helvetica, Segoe UI Emoji" font-size="20px" fill="#000000" text-anchor="start" style="white-space: pre;" direction="ltr">Navbar {loginData, setLoginData}</text></g><g stroke-linecap="round"><g transform="translate(615.8239542898581 76.39997100830078) rotate(0 105.7990051792562 -1.7679646264761715)"><path d="M0.94 -0.42 C35.76 -0.76, 174.58 -2.49, 209.43 -3.12 M-0.03 -1.69 C35.11 -1.72, 176.79 -1.25, 211.63 -1.53" stroke="#000000" stroke-width="1" fill="none"></path></g><g transform="translate(615.8239542898581 76.39997100830078) rotate(0 105.7990051792562 -1.7679646264761715)"><path d="M182.75 7.15 C193.36 4.32, 201.27 0.34, 211 -3.53 M183.75 8.76 C191.94 5.59, 198.27 4.02, 211.25 -0.72" stroke="#000000" stroke-width="1" fill="none"></path></g><g transform="translate(615.8239542898581 76.39997100830078) rotate(0 105.7990051792562 -1.7679646264761715)"><path d="M182.72 -13.38 C193.16 -9.15, 201.08 -6.08, 211 -3.53 M183.72 -11.76 C191.71 -9.4, 198.05 -5.44, 211.25 -0.72" stroke="#000000" stroke-width="1" fill="none"></path></g></g><mask></mask><g stroke-linecap="round" transform="translate(862.2239787039206 10) rotate(0 167.5999755859375 126.79999542236328)"><path d="M32 0 M32 0 C123.59 1.34, 217.24 0.96, 303.2 0 M32 0 C113.69 1.27, 195.85 1.3, 303.2 0 M303.2 0 C324.87 0.52, 335.26 8.95, 335.2 32 M303.2 0 C322.96 0.6, 336.13 8.84, 335.2 32 M335.2 32 C335.69 72.89, 335.02 113.25, 335.2 221.6 M335.2 32 C337.36 104.84, 336.31 178.07, 335.2 221.6 M335.2 221.6 C336.4 244.68, 323.73 251.85, 303.2 253.6 M335.2 221.6 C335.36 243.88, 323.34 251.91, 303.2 253.6 M303.2 253.6 C236.57 255.18, 174.32 255.76, 32 253.6 M303.2 253.6 C212.1 252.5, 120.19 253.78, 32 253.6 M32 253.6 C11.94 254.61, 0.52 244.9, 0 221.6 M32 253.6 C12.13 253.76, 1.29 244.13, 0 221.6 M0 221.6 C-2.84 154.94, 0.48 84.17, 0 32 M0 221.6 C-0.35 146.65, -0.05 70.17, 0 32 M0 32 C-1.81 11.63, 9.73 0.01, 32 0 M0 32 C1.51 9.7, 10.23 1.07, 32 0" stroke="#000000" stroke-width="1" fill="none"></path></g><g transform="translate(899.0239054617331 38.199913024902344) rotate(0 118.5 35)"><text x="0" y="18.333333333333332" font-family="Helvetica, Segoe UI Emoji" font-size="20px" fill="#000000" text-anchor="start" style="white-space: pre;" direction="ltr">{</text><text x="0" y="41.666666666666664" font-family="Helvetica, Segoe UI Emoji" font-size="20px" fill="#000000" text-anchor="start" style="white-space: pre;" direction="ltr">    loginData, setLoginData</text><text x="0" y="65" font-family="Helvetica, Segoe UI Emoji" font-size="20px" fill="#000000" text-anchor="start" style="white-space: pre;" direction="ltr">}</text></g><g stroke-linecap="round"><g transform="translate(405.42399091095183 199.59998321533203) rotate(0 4.39832711950902 53.37231065256523)"><path d="M-0.32 0.45 C0.68 18.11, 5.56 87.88, 6.91 105.58 M1.72 -0.36 C3 17.54, 8.23 89.57, 9.11 107.1" stroke="#000000" stroke-width="1" fill="none"></path></g><g transform="translate(405.42399091095183 199.59998321533203) rotate(0 4.39832711950902 53.37231065256523)"><path d="M-2.16 78 C1.5 89.9, 7.81 101.7, 9.48 107.89 M-3.63 79.35 C-0.26 86.49, 3.84 94.86, 8.6 106.93" stroke="#000000" stroke-width="1" fill="none"></path></g><g transform="translate(405.42399091095183 199.59998321533203) rotate(0 4.39832711950902 53.37231065256523)"><path d="M18.32 76.7 C14.25 89.04, 12.83 101.33, 9.48 107.89 M16.85 78.05 C14.51 85.4, 12.9 94.13, 8.6 106.93" stroke="#000000" stroke-width="1" fill="none"></path></g></g><mask></mask><g transform="translate(323.82401532501433 322.5999526977539) rotate(0 121.5 23)"><text x="0" y="19" font-family="Helvetica, Segoe UI Emoji" font-size="20px" fill="#000000" text-anchor="start" style="white-space: pre;" direction="ltr">User {username, friendList}</text><text x="0" y="42" font-family="Helvetica, Segoe UI Emoji" font-size="20px" fill="#000000" text-anchor="start" style="white-space: pre;" direction="ltr"></text></g><g stroke-linecap="round"><g transform="translate(559.8239542898581 102.79996490478516) rotate(0 -73.09076002106076 28.85764465555549)"><path d="M-1.13 1.18 C-25.42 10.28, -121.78 46.29, -146.23 55.35 M0.49 0.75 C-23.85 10, -121.77 47.59, -146.67 56.97" stroke="#000000" stroke-width="1" fill="none"></path></g><g transform="translate(559.8239542898581 102.79996490478516) rotate(0 -73.09076002106076 28.85764465555549)"><path d="M-122.01 38.97 C-129.57 41.28, -135.26 45.86, -145.13 57.89 M-123.21 37.28 C-132.58 45.37, -141.57 51.77, -147.35 56.8" stroke="#000000" stroke-width="1" fill="none"></path></g><g transform="translate(559.8239542898581 102.79996490478516) rotate(0 -73.09076002106076 28.85764465555549)"><path d="M-114.71 58.15 C-124.31 55.35, -131.92 54.88, -145.13 57.89 M-115.91 56.46 C-128.03 57.46, -139.73 56.74, -147.35 56.8" stroke="#000000" stroke-width="1" fill="none"></path></g></g><mask></mask><g stroke-linecap="round"><g transform="translate(559.8239542898581 109.9999771118164) rotate(0 55.653967498684494 23.617574171302834)"><path d="M1 -0.08 C19.17 8.16, 90.9 40.47, 109 48.4 M0.07 -1.16 C18.62 6.8, 93.13 38.2, 111.24 46.49" stroke="#000000" stroke-width="1" fill="none"></path></g><g transform="translate(559.8239542898581 109.9999771118164) rotate(0 55.653967498684494 23.617574171302834)"><path d="M81.16 43.1 C90.86 44.42, 98.28 44.04, 110.63 47.85 M81.6 43.74 C90.86 44.81, 100.26 46.61, 112.22 46.8" stroke="#000000" stroke-width="1" fill="none"></path></g><g transform="translate(559.8239542898581 109.9999771118164) rotate(0 55.653967498684494 23.617574171302834)"><path d="M89.38 24.3 C96.46 31.28, 101.44 36.49, 110.63 47.85 M89.81 24.94 C96.2 32.33, 102.86 40.4, 112.22 46.8" stroke="#000000" stroke-width="1" fill="none"></path></g></g><mask></mask><g stroke-linecap="round" transform="translate(513.4239909109518 406.6499710083008) rotate(0 39.5999755859375 34.399993896484375)"><path d="M17.2 0 M17.2 0 C31.83 -0.13, 48.76 -1.22, 62 0 M17.2 0 C34.07 -0.22, 48.53 -0.3, 62 0 M62 0 C72.88 0.99, 80.72 6.23, 79.2 17.2 M62 0 C73.42 -0.74, 81.38 4.04, 79.2 17.2 M79.2 17.2 C79.76 27.88, 78.71 38.76, 79.2 51.6 M79.2 17.2 C79.81 26.8, 78.38 35.25, 79.2 51.6 M79.2 51.6 C80.25 65.05, 73.28 67.01, 62 68.8 M79.2 51.6 C81.46 63.63, 75.48 69.7, 62 68.8 M62 68.8 C46.72 69.8, 34.88 67.91, 17.2 68.8 M62 68.8 C52.47 68.49, 44.66 67.75, 17.2 68.8 M17.2 68.8 C5.71 69.27, -0.8 64.07, 0 51.6 M17.2 68.8 C6.85 69.02, -1.07 62.59, 0 51.6 M0 51.6 C-0.86 37.38, -0.79 27.33, 0 17.2 M0 51.6 C0.42 41.73, 0.71 31.44, 0 17.2 M0 17.2 C0.28 5.93, 4.77 0.67, 17.2 0 M0 17.2 C-1.79 6.33, 3.69 -0.67, 17.2 0" stroke="#000000" stroke-width="1" fill="none"></path></g><g stroke-linecap="round" transform="translate(969.8239542898581 538.2499771118164) rotate(0 39.5999755859375 34.399993896484375)"><path d="M17.2 0 M17.2 0 C32.45 -1.04, 46.8 -0.96, 62 0 M17.2 0 C27.01 0.53, 37.03 0.44, 62 0 M62 0 C73 1.95, 77.41 6.02, 79.2 17.2 M62 0 C73.7 -1.1, 79.97 3.95, 79.2 17.2 M79.2 17.2 C80.43 27.3, 79.81 38.97, 79.2 51.6 M79.2 17.2 C78.94 23.64, 79.39 31.16, 79.2 51.6 M79.2 51.6 C79.71 61.51, 73.67 67.69, 62 68.8 M79.2 51.6 C79.05 63.63, 71.2 69.46, 62 68.8 M62 68.8 C46.64 68.65, 31.07 67.78, 17.2 68.8 M62 68.8 C49.89 69.56, 39.46 68.82, 17.2 68.8 M17.2 68.8 C4.8 67.77, 0.42 64.94, 0 51.6 M17.2 68.8 C7.79 69.72, 1.81 61.43, 0 51.6 M0 51.6 C-1.12 41.12, 1.14 27.7, 0 17.2 M0 51.6 C-0.07 41.28, 0.43 31.01, 0 17.2 M0 17.2 C-0.1 5.53, 7.17 -1.19, 17.2 0 M0 17.2 C-1.63 7.6, 5.92 -1.12, 17.2 0" stroke="#000000" stroke-width="1" fill="none"></path></g><g stroke-linecap="round" transform="translate(227.82401532501433 541.0500259399414) rotate(0 39.5999755859375 34.399993896484375)"><path d="M17.2 0 M17.2 0 C33.81 1.45, 52 1.89, 62 0 M17.2 0 C30.81 -0.79, 42.61 0.2, 62 0 M62 0 C72.51 0.67, 77.65 6.25, 79.2 17.2 M62 0 C71.42 -0.67, 80.96 4.45, 79.2 17.2 M79.2 17.2 C78.24 27.7, 78.85 39.3, 79.2 51.6 M79.2 17.2 C78.21 28.76, 78.43 40.05, 79.2 51.6 M79.2 51.6 C79.69 61.1, 74.04 69.38, 62 68.8 M79.2 51.6 C80.64 62.95, 72.77 68.65, 62 68.8 M62 68.8 C51.19 69.9, 39.54 69.5, 17.2 68.8 M62 68.8 C49.39 68.8, 38.75 69.49, 17.2 68.8 M17.2 68.8 C6.54 70.38, -1.42 64.31, 0 51.6 M17.2 68.8 C3.62 67, -1.65 65.36, 0 51.6 M0 51.6 C-0.14 38.45, -0.31 27.72, 0 17.2 M0 51.6 C0.02 40.51, -0.47 27.28, 0 17.2 M0 17.2 C1.63 5.9, 4.76 -0.19, 17.2 0 M0 17.2 C-0.86 4.53, 7.9 -0.05, 17.2 0" stroke="#000000" stroke-width="1" fill="none"></path></g><g transform="translate(545.5239664968893 429.54996490478516) rotate(0 7.5 11.5)"><text x="7.5" y="18" font-family="Helvetica, Segoe UI Emoji" font-size="20px" fill="#000000" text-anchor="middle" style="white-space: pre;" direction="ltr">A</text></g><g transform="translate(1000.4239298757956 561.1499710083008) rotate(0 9 11.5)"><text x="9" y="18" font-family="Helvetica, Segoe UI Emoji" font-size="20px" fill="#000000" text-anchor="middle" style="white-space: pre;" direction="ltr">G</text></g><g transform="translate(259.92399091095183 563.9500198364258) rotate(0 7.5 11.5)"><text x="7.5" y="18" font-family="Helvetica, Segoe UI Emoji" font-size="20px" fill="#000000" text-anchor="middle" style="white-space: pre;" direction="ltr">B</text></g><g stroke-linecap="round" transform="translate(92.22397870392058 703.6499710083008) rotate(0 39.5999755859375 34.399993896484375)"><path d="M17.2 0 M17.2 0 C29.89 -0.24, 41.64 -1.08, 62 0 M17.2 0 C30.94 -0.74, 43.1 0.24, 62 0 M62 0 C73.63 1.43, 79.21 5.48, 79.2 17.2 M62 0 C75.31 -0.25, 80.67 7.27, 79.2 17.2 M79.2 17.2 C80.56 26.78, 81.19 36.2, 79.2 51.6 M79.2 17.2 C79.47 25.86, 79.54 33.08, 79.2 51.6 M79.2 51.6 C77.31 61.39, 72.14 70.08, 62 68.8 M79.2 51.6 C79.25 63.7, 75.07 70.57, 62 68.8 M62 68.8 C48.68 71.09, 36.92 68.1, 17.2 68.8 M62 68.8 C44.51 68.86, 26.69 67.98, 17.2 68.8 M17.2 68.8 C5.13 68.69, 0.11 62.87, 0 51.6 M17.2 68.8 C4.1 66.78, 1.54 61.5, 0 51.6 M0 51.6 C-1.41 41.55, -0.81 27.58, 0 17.2 M0 51.6 C0.85 39.75, 0.85 26.17, 0 17.2 M0 17.2 C0.96 6.13, 4.41 -0.64, 17.2 0 M0 17.2 C1.27 7.46, 6.59 -1.52, 17.2 0" stroke="#000000" stroke-width="1" fill="none"></path></g><g transform="translate(124.32395428985808 726.5499649047852) rotate(0 7.5 11.5)"><text x="7.5" y="18" font-family="Helvetica, Segoe UI Emoji" font-size="20px" fill="#000000" text-anchor="middle" style="white-space: pre;" direction="ltr">B</text></g><g stroke-linecap="round" transform="translate(92.22397870392058 703.6499710083008) rotate(0 39.5999755859375 34.399993896484375)"><path d="M17.2 0 M17.2 0 C32.54 -0.85, 47.85 -1.84, 62 0 M17.2 0 C28.82 -0.03, 38.88 0.76, 62 0 M62 0 C73.25 1.27, 80.54 5.34, 79.2 17.2 M62 0 C74.86 -1.81, 80.53 5.67, 79.2 17.2 M79.2 17.2 C81.01 30.14, 79.05 45.74, 79.2 51.6 M79.2 17.2 C78.48 26.92, 79.95 37.99, 79.2 51.6 M79.2 51.6 C79.75 64.46, 75.01 68.6, 62 68.8 M79.2 51.6 C79.12 64.58, 73.09 71.09, 62 68.8 M62 68.8 C46.18 68.26, 31.54 69.79, 17.2 68.8 M62 68.8 C47.65 68.72, 33.3 67.95, 17.2 68.8 M17.2 68.8 C3.98 70.14, -1.37 63.61, 0 51.6 M17.2 68.8 C8.03 67.65, -1.23 64.46, 0 51.6 M0 51.6 C0.23 41.38, 1.96 34.15, 0 17.2 M0 51.6 C0.24 37.72, -0.28 25.72, 0 17.2 M0 17.2 C1.5 6.48, 4.41 1.39, 17.2 0 M0 17.2 C1.95 7.07, 3.71 1.82, 17.2 0" stroke="#000000" stroke-width="1" fill="none"></path></g><g stroke-linecap="round" transform="translate(221.22397870392058 701.6499710083008) rotate(0 39.5999755859375 34.399993896484375)"><path d="M17.2 0 M17.2 0 C26.64 1.41, 35.75 -0.27, 62 0 M17.2 0 C34.89 -0.48, 51.86 -1.07, 62 0 M62 0 C74.62 -0.06, 80.98 5.46, 79.2 17.2 M62 0 C71.76 2.13, 78.69 5.61, 79.2 17.2 M79.2 17.2 C77.32 28.9, 77.88 45.24, 79.2 51.6 M79.2 17.2 C80.07 27.49, 79.26 38.64, 79.2 51.6 M79.2 51.6 C78.87 65.06, 74.38 67.81, 62 68.8 M79.2 51.6 C81.41 62.69, 72.35 69.41, 62 68.8 M62 68.8 C46.69 68.42, 32.72 68.33, 17.2 68.8 M62 68.8 C51.06 69.37, 42.48 68.6, 17.2 68.8 M17.2 68.8 C4.66 70.01, -0.46 61.56, 0 51.6 M17.2 68.8 C7.29 68.77, -0.8 65.02, 0 51.6 M0 51.6 C0.68 38.92, -1.61 24.81, 0 17.2 M0 51.6 C-0.92 40.08, 0.59 27.75, 0 17.2 M0 17.2 C-1.76 7.32, 6.54 -1.34, 17.2 0 M0 17.2 C0.73 5.62, 5.36 -0.65, 17.2 0" stroke="#000000" stroke-width="1" fill="none"></path></g><g transform="translate(252.82395428985808 724.5499649047852) rotate(0 8 11.5)"><text x="8" y="18" font-family="Helvetica, Segoe UI Emoji" font-size="20px" fill="#000000" text-anchor="middle" style="white-space: pre;" direction="ltr">C</text></g><g stroke-linecap="round" transform="translate(221.22397870392058 701.6499710083008) rotate(0 39.5999755859375 34.399993896484375)"><path d="M17.2 0 M17.2 0 C30.46 0.92, 45.48 -0.76, 62 0 M17.2 0 C33.33 0.63, 49.39 -1, 62 0 M62 0 C75.32 -0.44, 79.1 7.51, 79.2 17.2 M62 0 C73.51 0.78, 77.03 3.8, 79.2 17.2 M79.2 17.2 C79.97 26.63, 80.96 33.07, 79.2 51.6 M79.2 17.2 C80.42 27.86, 78.93 38.56, 79.2 51.6 M79.2 51.6 C78.88 62.09, 74 69.36, 62 68.8 M79.2 51.6 C79.64 61.69, 72.77 68.67, 62 68.8 M62 68.8 C46.55 69.82, 33.24 69.03, 17.2 68.8 M62 68.8 C44.69 68.33, 25.42 69.24, 17.2 68.8 M17.2 68.8 C5.7 68.1, 1.7 64.67, 0 51.6 M17.2 68.8 C7.67 68.51, 1.11 63.52, 0 51.6 M0 51.6 C1.61 44.3, -1.22 36.91, 0 17.2 M0 51.6 C0.59 38.77, -0.87 25.45, 0 17.2 M0 17.2 C-0.1 5.41, 5.17 0.49, 17.2 0 M0 17.2 C-1.12 3.66, 4.77 -1.79, 17.2 0" stroke="#000000" stroke-width="1" fill="none"></path></g><g stroke-linecap="round" transform="translate(340.4239298757956 701.4499893188477) rotate(0 39.5999755859375 34.399993896484375)"><path d="M17.2 0 M17.2 0 C30.91 0.29, 44.08 0.08, 62 0 M17.2 0 C27.27 0.99, 37.46 0.44, 62 0 M62 0 C71.58 -1.68, 77.87 7.01, 79.2 17.2 M62 0 C73.51 0.64, 80.8 7.5, 79.2 17.2 M79.2 17.2 C78.86 29.17, 80.1 36.17, 79.2 51.6 M79.2 17.2 C79.41 31.11, 79.34 43.86, 79.2 51.6 M79.2 51.6 C78.59 62.96, 73.58 68.6, 62 68.8 M79.2 51.6 C77.57 61.05, 75.01 67.23, 62 68.8 M62 68.8 C46.27 69.79, 32.22 67.07, 17.2 68.8 M62 68.8 C46.37 69.44, 29.89 68.52, 17.2 68.8 M17.2 68.8 C6.7 69.2, -1.32 62.43, 0 51.6 M17.2 68.8 C7 70.52, 0.86 61.54, 0 51.6 M0 51.6 C-2.05 40.47, 0.51 24.83, 0 17.2 M0 51.6 C-0.27 40.43, -0.47 27.87, 0 17.2 M0 17.2 C-0.83 4.17, 5.85 1.28, 17.2 0 M0 17.2 C1.14 4.78, 6.66 1, 17.2 0" stroke="#000000" stroke-width="1" fill="none"></path></g><g transform="translate(372.0239054617331 724.349983215332) rotate(0 8 11.5)"><text x="8" y="18" font-family="Helvetica, Segoe UI Emoji" font-size="20px" fill="#000000" text-anchor="middle" style="white-space: pre;" direction="ltr">D</text></g><g stroke-linecap="round" transform="translate(824.2239787039206 688.2499771118164) rotate(0 39.5999755859375 34.399993896484375)"><path d="M17.2 0 M17.2 0 C35.39 1.99, 51.95 -1.47, 62 0 M17.2 0 C34.51 0.25, 51.02 0.02, 62 0 M62 0 C73.95 -0.97, 77.4 4.9, 79.2 17.2 M62 0 C71.67 0.14, 80.67 6.88, 79.2 17.2 M79.2 17.2 C80.87 27.49, 80.52 36.93, 79.2 51.6 M79.2 17.2 C79.42 29.23, 78.82 41.61, 79.2 51.6 M79.2 51.6 C80.79 64.57, 74.04 69.19, 62 68.8 M79.2 51.6 C80.66 61.15, 71.72 68.6, 62 68.8 M62 68.8 C45.54 68.65, 32.96 70.51, 17.2 68.8 M62 68.8 C46.37 69.65, 30.59 69.51, 17.2 68.8 M17.2 68.8 C6.1 67.68, 1.3 64.85, 0 51.6 M17.2 68.8 C4.73 66.52, -0.25 63.12, 0 51.6 M0 51.6 C0.39 43.02, 0.51 38.12, 0 17.2 M0 51.6 C0.74 38.75, 0.08 25.31, 0 17.2 M0 17.2 C-0.3 4.05, 6.9 1.91, 17.2 0 M0 17.2 C1.74 5.02, 6.01 -0.4, 17.2 0" stroke="#000000" stroke-width="1" fill="none"></path></g><g transform="translate(855.8239542898581 711.1499710083008) rotate(0 8 11.5)"><text x="8" y="18" font-family="Helvetica, Segoe UI Emoji" font-size="20px" fill="#000000" text-anchor="middle" style="white-space: pre;" direction="ltr">H</text></g><g stroke-linecap="round" transform="translate(1051.0240275320457 682.8499526977539) rotate(0 39.5999755859375 34.399993896484375)"><path d="M17.2 0 M17.2 0 C36.01 0.59, 50.78 1.54, 62 0 M17.2 0 C32.61 0.95, 47.07 0.44, 62 0 M62 0 C73.86 1.27, 77.53 4.21, 79.2 17.2 M62 0 C73.27 0.76, 80.3 5.62, 79.2 17.2 M79.2 17.2 C80.91 26.04, 79.26 33.24, 79.2 51.6 M79.2 17.2 C79.99 29.25, 78.88 41.59, 79.2 51.6 M79.2 51.6 C80.98 62.19, 71.49 68.58, 62 68.8 M79.2 51.6 C79.25 60.99, 75.27 66.77, 62 68.8 M62 68.8 C48.04 70.84, 31.69 70.35, 17.2 68.8 M62 68.8 C46.35 68.65, 28.34 69.38, 17.2 68.8 M17.2 68.8 C7.65 70.31, -0.62 63.31, 0 51.6 M17.2 68.8 C5.33 67.87, 0.75 63.55, 0 51.6 M0 51.6 C1.26 42.17, -0.59 36.34, 0 17.2 M0 51.6 C-0.77 42.91, -0.71 33.84, 0 17.2 M0 17.2 C1.49 5.26, 6.52 1.43, 17.2 0 M0 17.2 C1.03 6.3, 6.31 1.66, 17.2 0" stroke="#000000" stroke-width="1" fill="none"></path></g><g transform="translate(1086.6240031179832 705.7499465942383) rotate(0 4 11.5)"><text x="4" y="18" font-family="Helvetica, Segoe UI Emoji" font-size="20px" fill="#000000" text-anchor="middle" style="white-space: pre;" direction="ltr">I</text></g><g stroke-linecap="round" transform="translate(144.22397870392058 872.4499588012695) rotate(0 39.5999755859375 34.399993896484375)"><path d="M17.2 0 M17.2 0 C31.83 0.61, 43.49 -1.6, 62 0 M17.2 0 C34.04 0.26, 51.33 1.07, 62 0 M62 0 C72.85 -1.11, 79.39 4.74, 79.2 17.2 M62 0 C73.03 1.72, 78.66 6.63, 79.2 17.2 M79.2 17.2 C79.86 31.43, 79.36 43.26, 79.2 51.6 M79.2 17.2 C79.9 25.02, 80.29 33.17, 79.2 51.6 M79.2 51.6 C80.51 62.83, 73.91 69.71, 62 68.8 M79.2 51.6 C80.44 60.8, 71.39 68.22, 62 68.8 M62 68.8 C45 69.95, 26.44 69.98, 17.2 68.8 M62 68.8 C45.62 68.33, 29.09 68.24, 17.2 68.8 M17.2 68.8 C6.57 66.92, -0.54 62.49, 0 51.6 M17.2 68.8 C4.86 67.12, -1.43 61.15, 0 51.6 M0 51.6 C-0.67 39.5, -0.5 27.18, 0 17.2 M0 51.6 C0.85 44.66, -1.06 37.51, 0 17.2 M0 17.2 C0.75 7.7, 6.58 -1.94, 17.2 0 M0 17.2 C-0.7 3.67, 4.54 -1.88, 17.2 0" stroke="#000000" stroke-width="1" fill="none"></path></g><g transform="translate(176.32395428985808 895.3499526977539) rotate(0 7.5 11.5)"><text x="7.5" y="18" font-family="Helvetica, Segoe UI Emoji" font-size="20px" fill="#000000" text-anchor="middle" style="white-space: pre;" direction="ltr">E</text></g><g stroke-linecap="round" transform="translate(278.2239787039206 870.6499710083008) rotate(0 39.5999755859375 34.399993896484375)"><path d="M17.2 0 M17.2 0 C28.02 1.08, 36.04 0.55, 62 0 M17.2 0 C33.56 -1.11, 47.6 0.14, 62 0 M62 0 C73.28 1.18, 78.83 6.57, 79.2 17.2 M62 0 C71.3 -0.62, 78.54 4.86, 79.2 17.2 M79.2 17.2 C79.87 25.68, 77.76 32.25, 79.2 51.6 M79.2 17.2 C78.3 27.49, 79.09 37.95, 79.2 51.6 M79.2 51.6 C80.2 61.24, 75.02 69.55, 62 68.8 M79.2 51.6 C81.46 64.04, 71.23 68.1, 62 68.8 M62 68.8 C54.36 67.58, 44.8 69.32, 17.2 68.8 M62 68.8 C44.26 69.3, 26.61 68.77, 17.2 68.8 M17.2 68.8 C7.39 69.36, 1.62 62.92, 0 51.6 M17.2 68.8 C3.52 67.91, -0.99 61.61, 0 51.6 M0 51.6 C-0.58 37.88, -0.65 26.36, 0 17.2 M0 51.6 C0.44 43.08, 0.48 33.71, 0 17.2 M0 17.2 C-0.68 5.33, 6.31 -0.69, 17.2 0 M0 17.2 C-1.55 6.28, 6.28 0.81, 17.2 0" stroke="#000000" stroke-width="1" fill="none"></path></g><g transform="translate(310.8239542898581 893.5499649047852) rotate(0 7 11.5)"><text x="7" y="18" font-family="Helvetica, Segoe UI Emoji" font-size="20px" fill="#000000" text-anchor="middle" style="white-space: pre;" direction="ltr">F</text></g><g stroke-linecap="round" transform="translate(1053.8239542898582 829.3499221801758) rotate(0 39.5999755859375 34.399993896484375)"><path d="M17.2 0 M17.2 0 C32.63 1.63, 44.28 -1.54, 62 0 M17.2 0 C32.08 0.15, 46.4 -0.53, 62 0 M62 0 C72.89 -0.76, 77.74 4.49, 79.2 17.2 M62 0 C71.55 1.02, 79.98 4.32, 79.2 17.2 M79.2 17.2 C78.41 24.89, 79.98 35.84, 79.2 51.6 M79.2 17.2 C80.15 31.3, 80.35 45.07, 79.2 51.6 M79.2 51.6 C77.26 62.46, 71.67 67.76, 62 68.8 M79.2 51.6 C77.32 65.12, 72.49 70.68, 62 68.8 M62 68.8 C45.61 68.49, 32.55 68.2, 17.2 68.8 M62 68.8 C48.54 68.85, 32.49 68.54, 17.2 68.8 M17.2 68.8 C4.87 67.54, 1.1 62.5, 0 51.6 M17.2 68.8 C7.55 68.02, -1.73 62.21, 0 51.6 M0 51.6 C-1.06 43.37, 0.07 34.51, 0 17.2 M0 51.6 C0.41 44.28, -0.55 37.88, 0 17.2 M0 17.2 C0.48 6.44, 4.6 -0.04, 17.2 0 M0 17.2 C-0.45 3.93, 4.04 0.6, 17.2 0" stroke="#000000" stroke-width="1" fill="none"></path></g><g transform="translate(1087.4239298757957 852.2499160766602) rotate(0 6 11.5)"><text x="6" y="18" font-family="Helvetica, Segoe UI Emoji" font-size="20px" fill="#000000" text-anchor="middle" style="white-space: pre;" direction="ltr">J</text></g><g stroke-linecap="round"><g transform="translate(556.6239420828268 491.0999984741211) rotate(0 -133.26905253412917 18.410200062219303)"><path d="M-0.94 0.9 C-1.56 -0.35, 42.54 -14.85, -4.44 -7.46 C-51.41 -0.07, -236.36 36.28, -282.8 45.24 M0.77 0.33 C0.02 -0.75, 41.81 -13.74, -5.62 -6.07 C-53.04 1.61, -237.52 38.01, -283.78 46.37" stroke="#000000" stroke-width="1" fill="none"></path></g><g transform="translate(556.6239420828268 491.0999984741211) rotate(0 -133.26905253412917 18.410200062219303)"><path d="M-256.49 30.31 C-264.59 33.84, -270.92 37.04, -282.62 47.78 M-258.78 31.39 C-264.54 35.01, -273.76 40.36, -284.63 46.69" stroke="#000000" stroke-width="1" fill="none"></path></g><g transform="translate(556.6239420828268 491.0999984741211) rotate(0 -133.26905253412917 18.410200062219303)"><path d="M-252.66 50.47 C-261.7 49.14, -268.94 47.52, -282.62 47.78 M-254.96 51.56 C-261.92 49.25, -272.26 48.68, -284.63 46.69" stroke="#000000" stroke-width="1" fill="none"></path></g></g><mask></mask><g stroke-linecap="round"><g transform="translate(571.0239664968893 484.6999740600586) rotate(0 198.71642936725175 40.489823699742544)"><path d="M0.86 1.09 C67.2 14.3, 331.75 65.78, 397.58 78.95 M-0.15 0.62 C66.15 14.04, 330.65 67.42, 397.04 80.36" stroke="#000000" stroke-width="1" fill="none"></path></g><g transform="translate(571.0239664968893 484.6999740600586) rotate(0 198.71642936725175 40.489823699742544)"><path d="M369.22 86.22 C374.68 81.9, 384.29 82.69, 397.51 79.36 M367.07 85.43 C377.31 84.3, 386.12 81.37, 396.54 80.64" stroke="#000000" stroke-width="1" fill="none"></path></g><g transform="translate(571.0239664968893 484.6999740600586) rotate(0 198.71642936725175 40.489823699742544)"><path d="M373.22 66.1 C377.59 67.02, 386.17 73.03, 397.51 79.36 M371.08 65.31 C380.01 70.75, 387.51 74.43, 396.54 80.64" stroke="#000000" stroke-width="1" fill="none"></path></g></g><mask></mask><g stroke-linecap="round"><g transform="translate(251.02396649688933 616.6999588012695) rotate(0 -71.92913859184827 41.47103594180197)"><path d="M-0.92 1.19 C-24.83 15.08, -120.65 68.69, -144.66 82.17 M0.8 0.77 C-22.61 14.41, -118.39 67.15, -142.29 80.35" stroke="#000000" stroke-width="1" fill="none"></path></g><g transform="translate(251.02396649688933 616.6999588012695) rotate(0 -71.92913859184827 41.47103594180197)"><path d="M-120.58 56.65 C-125.8 60.51, -129.97 67.09, -142.26 79.24 M-123.46 57.01 C-128.03 63.15, -134.13 69.59, -143.11 80.66" stroke="#000000" stroke-width="1" fill="none"></path></g><g transform="translate(251.02396649688933 616.6999588012695) rotate(0 -71.92913859184827 41.47103594180197)"><path d="M-110.67 74.61 C-117.7 74.8, -123.86 77.77, -142.26 79.24 M-113.54 74.98 C-120.61 76.29, -129.38 77.88, -143.11 80.66" stroke="#000000" stroke-width="1" fill="none"></path></g></g><mask></mask><g stroke-linecap="round"><g transform="translate(255.82395428985808 625.4999771118164) rotate(0 -0.6816512889787418 35.95322033420206)"><path d="M-0.81 0.2 C-1.35 12.17, -2.13 59.5, -2.33 71.42 M0.96 -0.74 C0.73 11.41, 0.66 60.39, 0.01 72.65" stroke="#000000" stroke-width="1" fill="none"></path></g><g transform="translate(255.82395428985808 625.4999771118164) rotate(0 -0.6816512889787418 35.95322033420206)"><path d="M-9.25 43.01 C-7.03 54.35, -2.98 66.41, 0.9 70.72 M-10.26 44.04 C-6.99 54.47, -1.97 64.84, -0.1 72.46" stroke="#000000" stroke-width="1" fill="none"></path></g><g transform="translate(255.82395428985808 625.4999771118164) rotate(0 -0.6816512889787418 35.95322033420206)"><path d="M11.27 43.5 C5.75 54.52, 2.05 66.39, 0.9 70.72 M10.26 44.53 C6.37 54.86, 4.24 65.06, -0.1 72.46" stroke="#000000" stroke-width="1" fill="none"></path></g></g><mask></mask><g stroke-linecap="round"><g transform="translate(265.4239603933737 630.2999649047852) rotate(0 55.815017320402006 31.658697204738814)"><path d="M-0.48 0.38 C18.01 10.71, 91.32 52.07, 110.02 62.85 M1.47 -0.47 C20.39 9.88, 93.82 53.16, 112.11 63.79" stroke="#000000" stroke-width="1" fill="none"></path></g><g transform="translate(265.4239603933737 630.2999649047852) rotate(0 55.815017320402006 31.658697204738814)"><path d="M83.22 56.44 C87.3 60.58, 97.6 60.48, 112.18 63.76 M82.91 57.88 C92.92 60.57, 101.53 61.68, 112.1 63.51" stroke="#000000" stroke-width="1" fill="none"></path></g><g transform="translate(265.4239603933737 630.2999649047852) rotate(0 55.815017320402006 31.658697204738814)"><path d="M93.59 38.73 C95.49 46.77, 103.48 50.61, 112.18 63.76 M93.28 40.17 C99.93 48.5, 105.22 55.3, 112.1 63.51" stroke="#000000" stroke-width="1" fill="none"></path></g></g><mask></mask><g stroke-linecap="round"><g transform="translate(143.82395428985808 782.2999649047852) rotate(0 10.433211631700402 42.24797143500297)"><path d="M-1.15 0.61 C2.37 14.6, 18.07 70.75, 22.01 84.62 M0.45 -0.12 C3.77 13.47, 17.65 68.63, 21.28 82.82" stroke="#000000" stroke-width="1" fill="none"></path></g><g transform="translate(143.82395428985808 782.2999649047852) rotate(0 10.433211631700402 42.24797143500297)"><path d="M5.42 58.7 C11.92 69.07, 16.92 76.93, 21.96 81.46 M3.72 57.36 C9.37 64.86, 15.5 72, 21.27 83.79" stroke="#000000" stroke-width="1" fill="none"></path></g><g transform="translate(143.82395428985808 782.2999649047852) rotate(0 10.433211631700402 42.24797143500297)"><path d="M25.31 53.66 C24.35 65.74, 21.86 75.49, 21.96 81.46 M23.61 52.32 C23.33 61.21, 23.51 69.85, 21.27 83.79" stroke="#000000" stroke-width="1" fill="none"></path></g></g><mask></mask><g stroke-linecap="round"><g transform="translate(273.42396039337376 780.6999588012695) rotate(0 20.148898034580014 42.198097601085976)"><path d="M0.89 1.04 C7.63 14.97, 33.83 69.11, 40.39 82.62 M-0.1 0.54 C6.51 14.71, 33.03 70.14, 39.65 83.86" stroke="#000000" stroke-width="1" fill="none"></path></g><g transform="translate(273.42396039337376 780.6999588012695) rotate(0 20.148898034580014 42.198097601085976)"><path d="M19.93 63.55 C23.51 69.49, 29.08 75.19, 41 85.64 M19.2 63.55 C25.2 69.82, 30.44 75.29, 38.69 82.97" stroke="#000000" stroke-width="1" fill="none"></path></g><g transform="translate(273.42396039337376 780.6999588012695) rotate(0 20.148898034580014 42.198097601085976)"><path d="M38.43 54.66 C36.38 63.41, 36.41 71.77, 41 85.64 M37.7 54.67 C38.06 63.65, 37.69 71.81, 38.69 82.97" stroke="#000000" stroke-width="1" fill="none"></path></g></g><mask></mask><g stroke-linecap="round"><g transform="translate(981.4239298757954 617.4999771118164) rotate(0 -51.9420647443643 36.9342335717194)"><path d="M-1.01 0.82 C-18.4 12.72, -86.59 60.35, -103.46 72.09 M0.66 0.2 C-16.99 12.26, -87.35 61.68, -104.54 73.67" stroke="#000000" stroke-width="1" fill="none"></path></g><g transform="translate(981.4239298757954 617.4999771118164) rotate(0 -51.9420647443643 36.9342335717194)"><path d="M-85.97 48.67 C-93.47 59.76, -101.3 66.32, -105 75.09 M-87.36 49.69 C-90.39 54.92, -94.29 59.61, -104.08 74.27" stroke="#000000" stroke-width="1" fill="none"></path></g><g transform="translate(981.4239298757954 617.4999771118164) rotate(0 -51.9420647443643 36.9342335717194)"><path d="M-74.2 65.48 C-86.18 70.2, -98.4 70.49, -105 75.09 M-75.59 66.5 C-81.08 68.35, -87.37 69.62, -104.08 74.27" stroke="#000000" stroke-width="1" fill="none"></path></g></g><mask></mask><g stroke-linecap="round"><g transform="translate(999.0240275320456 624.6999588012695) rotate(0 38.42097038583836 29.54150700761005)"><path d="M0.56 0.72 C13.09 10.26, 62.75 48.24, 75.17 57.81 M-0.61 0.05 C12.31 9.7, 64.43 49.16, 77.45 59.03" stroke="#000000" stroke-width="1" fill="none"></path></g><g transform="translate(999.0240275320456 624.6999588012695) rotate(0 38.42097038583836 29.54150700761005)"><path d="M49.98 48.82 C56.33 51.18, 65.34 57.01, 77.92 59.13 M48.72 49.52 C53.8 52.14, 61.35 54.38, 77.05 59.55" stroke="#000000" stroke-width="1" fill="none"></path></g><g transform="translate(999.0240275320456 624.6999588012695) rotate(0 38.42097038583836 29.54150700761005)"><path d="M62.37 32.46 C65.12 39.73, 70.45 50.4, 77.92 59.13 M61.11 33.16 C63.75 39.09, 68.75 44.7, 77.05 59.55" stroke="#000000" stroke-width="1" fill="none"></path></g></g><mask></mask><g stroke-linecap="round"><g transform="translate(1085.4239298757957 765.4999771118164) rotate(0 -4.0748519788310205 34.533862357884686)"><path d="M0.01 0.86 C-1.1 12.3, -6.25 56.34, -7.48 67.51 M-1.45 0.27 C-2.6 11.97, -7.1 57.31, -8.16 68.8" stroke="#000000" stroke-width="1" fill="none"></path></g><g transform="translate(1085.4239298757957 765.4999771118164) rotate(0 -4.0748519788310205 34.533862357884686)"><path d="M-14.23 40.62 C-15 47.55, -12.58 53.75, -8.08 68.01 M-15.38 40.23 C-14.12 49.04, -12.38 56.91, -8.35 67.99" stroke="#000000" stroke-width="1" fill="none"></path></g><g transform="translate(1085.4239298757957 765.4999771118164) rotate(0 -4.0748519788310205 34.533862357884686)"><path d="M6.2 42.58 C0.69 49.06, -1.65 54.8, -8.08 68.01 M5.05 42.2 C0.49 50.33, -3.58 57.63, -8.35 67.99" stroke="#000000" stroke-width="1" fill="none"></path></g></g><mask></mask><g stroke-linecap="round"><g transform="translate(43.02395123810027 911.8999862670898) rotate(0 200.70697770857026 -240.5887927520536)"><path d="M-1.07 0.67 C-1.24 -70.82, -72.38 -350, -0.21 -429.5 C71.97 -508.99, 359.76 -468.26, 431.98 -476.28 M0.56 -0.02 C0.15 -71.79, -73.57 -351.42, -1.26 -431.14 C71.05 -510.86, 361.99 -470.72, 434.44 -478.35" stroke="#5c940d" stroke-width="1" fill="none"></path></g><g transform="translate(43.02395123810027 911.8999862670898) rotate(0 200.70697770857026 -240.5887927520536)"><path d="M407.23 -468.81 C418.04 -473.21, 427.77 -475.01, 433.14 -478.55 M406.83 -467.58 C417.33 -471.15, 426.68 -475.31, 434.01 -478.39" stroke="#5c940d" stroke-width="1" fill="none"></path></g><g transform="translate(43.02395123810027 911.8999862670898) rotate(0 200.70697770857026 -240.5887927520536)"><path d="M407.51 -489.33 C418.12 -486.21, 427.75 -480.51, 433.14 -478.55 M407.11 -488.1 C417.49 -484.18, 426.74 -480.85, 434.01 -478.39" stroke="#5c940d" stroke-width="1" fill="none"></path></g></g><mask></mask><g transform="translate(111.02395123810027 468.49998474121094) rotate(0 39.5 23)"><text x="0" y="19" font-family="Helvetica, Segoe UI Emoji" font-size="20px" fill="#000000" text-anchor="start" style="white-space: pre;" direction="ltr">Lifting </text><text x="0" y="42" font-family="Helvetica, Segoe UI Emoji" font-size="20px" fill="#000000" text-anchor="start" style="white-space: pre;" direction="ltr">the state</text></g><g stroke-linecap="round"><g transform="translate(603.0239664968893 441.49996185302734) rotate(0 318.8949838053435 192.23413101239223)"><path d="M-0.41 -0.5 C93.83 0.05, 458.49 -66.05, 564.92 2.87 C671.36 71.79, 625.87 344.86, 638.2 413 M1.57 -1.81 C95.72 -1.11, 458.08 -65.02, 564.04 3.81 C670 72.65, 624.77 343.04, 637.33 411.18" stroke="#000000" stroke-width="1" fill="none"></path></g><g transform="translate(603.0239664968893 441.49996185302734) rotate(0 318.8949838053435 192.23413101239223)"><path d="M625.87 383.33 C627.41 389.95, 633.65 398.22, 636.83 413.08 M625.72 383.8 C628.42 388.46, 631.53 394.86, 637.03 411.54" stroke="#000000" stroke-width="1" fill="none"></path></g><g transform="translate(603.0239664968893 441.49996185302734) rotate(0 318.8949838053435 192.23413101239223)"><path d="M646.39 383.06 C642.72 389.68, 643.76 398.02, 636.83 413.08 M646.24 383.54 C644.36 388.42, 642.88 394.88, 637.03 411.54" stroke="#000000" stroke-width="1" fill="none"></path></g></g><mask></mask><g transform="translate(1051.8239542898582 394.09996795654297) rotate(0 55 23)"><text x="0" y="19" font-family="Helvetica, Segoe UI Emoji" font-size="20px" fill="#000000" text-anchor="start" style="white-space: pre;" direction="ltr">Prop Drilling</text><text x="0" y="42" font-family="Helvetica, Segoe UI Emoji" font-size="20px" fill="#000000" text-anchor="start" style="white-space: pre;" direction="ltr"></text></g></svg>